<svg width="22" height="21" viewBox="0 0 22 21" fill="none" xmlns="http://www.w3.org/2000/svg">
<mask id="path-1-inside-1_379_852" fill="white">
<path d="M18.0344 11.6082H3.46973V3.86938H21.9999L18.0344 11.6082ZM4.33718 10.6409H17.531L20.5051 4.83674H4.33718V10.6409Z"/>
</mask>
<path d="M18.0344 11.6082H3.46973V3.86938H21.9999L18.0344 11.6082ZM4.33718 10.6409H17.531L20.5051 4.83674H4.33718V10.6409Z" fill="black"/>
<path d="M18.0344 11.6082V12.6082H18.6457L18.9244 12.0642L18.0344 11.6082ZM3.46973 11.6082H2.46973V12.6082H3.46973V11.6082ZM3.46973 3.86938V2.86938H2.46973V3.86938H3.46973ZM21.9999 3.86938L22.8899 4.32541L23.636 2.86938H21.9999V3.86938ZM4.33718 10.6409H3.33718V11.6409H4.33718V10.6409ZM17.531 10.6409V11.6409H18.1422L18.4209 11.0969L17.531 10.6409ZM20.5051 4.83674L21.3951 5.29277L22.1412 3.83674H20.5051V4.83674ZM4.33718 4.83674V3.83674H3.33718V4.83674H4.33718ZM18.0344 10.6082H3.46973V12.6082H18.0344V10.6082ZM4.46973 11.6082V3.86938H2.46973V11.6082H4.46973ZM3.46973 4.86938H21.9999V2.86938H3.46973V4.86938ZM21.1099 3.41335L17.1445 11.1522L18.9244 12.0642L22.8899 4.32541L21.1099 3.41335ZM4.33718 11.6409H17.531V9.64085H4.33718V11.6409ZM18.4209 11.0969L21.3951 5.29277L19.6152 4.3807L16.641 10.1848L18.4209 11.0969ZM20.5051 3.83674H4.33718V5.83674H20.5051V3.83674ZM3.33718 4.83674V10.6409H5.33718V4.83674H3.33718Z" fill="white" mask="url(#path-1-inside-1_379_852)"/>
<mask id="path-3-inside-2_379_852" fill="white">
<path d="M6.50604 20.3143C5.31025 20.3143 4.3374 19.2294 4.3374 17.8959C4.3374 16.5624 5.31025 15.4775 6.50604 15.4775C7.70182 15.4775 8.67467 16.5624 8.67467 17.8959C8.67467 19.2294 7.70182 20.3143 6.50604 20.3143ZM6.50604 16.4449C5.78856 16.4449 5.20486 17.0958 5.20486 17.8959C5.20486 18.696 5.78856 19.3469 6.50604 19.3469C7.22351 19.3469 7.80722 18.696 7.80722 17.8959C7.80722 17.0958 7.22351 16.4449 6.50604 16.4449Z"/>
</mask>
<path d="M6.50604 20.3143C5.31025 20.3143 4.3374 19.2294 4.3374 17.8959C4.3374 16.5624 5.31025 15.4775 6.50604 15.4775C7.70182 15.4775 8.67467 16.5624 8.67467 17.8959C8.67467 19.2294 7.70182 20.3143 6.50604 20.3143ZM6.50604 16.4449C5.78856 16.4449 5.20486 17.0958 5.20486 17.8959C5.20486 18.696 5.78856 19.3469 6.50604 19.3469C7.22351 19.3469 7.80722 18.696 7.80722 17.8959C7.80722 17.0958 7.22351 16.4449 6.50604 16.4449Z" fill="black"/>
<path d="M6.50604 19.3143C5.96226 19.3143 5.3374 18.7824 5.3374 17.8959H3.3374C3.3374 19.6764 4.65824 21.3143 6.50604 21.3143V19.3143ZM5.3374 17.8959C5.3374 17.0094 5.96226 16.4775 6.50604 16.4775V14.4775C4.65824 14.4775 3.3374 16.1154 3.3374 17.8959H5.3374ZM6.50604 16.4775C7.04981 16.4775 7.67467 17.0094 7.67467 17.8959H9.67467C9.67467 16.1154 8.35383 14.4775 6.50604 14.4775V16.4775ZM7.67467 17.8959C7.67467 18.7824 7.04981 19.3143 6.50604 19.3143V21.3143C8.35383 21.3143 9.67467 19.6764 9.67467 17.8959H7.67467ZM6.50604 15.4449C5.13655 15.4449 4.20486 16.6488 4.20486 17.8959H6.20486C6.20486 17.7388 6.26209 17.6147 6.3309 17.538C6.39829 17.4628 6.46205 17.4449 6.50604 17.4449V15.4449ZM4.20486 17.8959C4.20486 19.143 5.13655 20.3469 6.50604 20.3469V18.3469C6.46205 18.3469 6.39829 18.329 6.3309 18.2539C6.26209 18.1771 6.20486 18.053 6.20486 17.8959H4.20486ZM6.50604 20.3469C7.87552 20.3469 8.80722 19.143 8.80722 17.8959H6.80722C6.80722 18.053 6.74998 18.1771 6.68117 18.2539C6.61379 18.329 6.55002 18.3469 6.50604 18.3469V20.3469ZM8.80722 17.8959C8.80722 16.6488 7.87552 15.4449 6.50604 15.4449V17.4449C6.55002 17.4449 6.61379 17.4628 6.68117 17.538C6.74998 17.6147 6.80722 17.7388 6.80722 17.8959H8.80722Z" fill="white" mask="url(#path-3-inside-2_379_852)"/>
<mask id="path-5-inside-3_379_852" fill="white">
<path d="M14.7468 20.3143C13.551 20.3143 12.5781 19.2294 12.5781 17.8959C12.5781 16.5624 13.551 15.4775 14.7468 15.4775C15.9425 15.4775 16.9154 16.5624 16.9154 17.8959C16.9154 19.2294 15.9425 20.3143 14.7468 20.3143ZM14.7468 16.4449C14.0293 16.4449 13.4456 17.0958 13.4456 17.8959C13.4456 18.696 14.0293 19.3469 14.7468 19.3469C15.4642 19.3469 16.0479 18.696 16.0479 17.8959C16.0479 17.0958 15.4642 16.4449 14.7468 16.4449Z"/>
</mask>
<path d="M14.7468 20.3143C13.551 20.3143 12.5781 19.2294 12.5781 17.8959C12.5781 16.5624 13.551 15.4775 14.7468 15.4775C15.9425 15.4775 16.9154 16.5624 16.9154 17.8959C16.9154 19.2294 15.9425 20.3143 14.7468 20.3143ZM14.7468 16.4449C14.0293 16.4449 13.4456 17.0958 13.4456 17.8959C13.4456 18.696 14.0293 19.3469 14.7468 19.3469C15.4642 19.3469 16.0479 18.696 16.0479 17.8959C16.0479 17.0958 15.4642 16.4449 14.7468 16.4449Z" fill="black"/>
<path d="M14.7468 19.3143C14.203 19.3143 13.5781 18.7824 13.5781 17.8959H11.5781C11.5781 19.6764 12.899 21.3143 14.7468 21.3143V19.3143ZM13.5781 17.8959C13.5781 17.0094 14.203 16.4775 14.7468 16.4775V14.4775C12.899 14.4775 11.5781 16.1154 11.5781 17.8959H13.5781ZM14.7468 16.4775C15.2905 16.4775 15.9154 17.0094 15.9154 17.8959H17.9154C17.9154 16.1154 16.5946 14.4775 14.7468 14.4775V16.4775ZM15.9154 17.8959C15.9154 18.7824 15.2905 19.3143 14.7468 19.3143V21.3143C16.5946 21.3143 17.9154 19.6764 17.9154 17.8959H15.9154ZM14.7468 15.4449C13.3773 15.4449 12.4456 16.6488 12.4456 17.8959H14.4456C14.4456 17.7388 14.5028 17.6147 14.5716 17.538C14.639 17.4628 14.7028 17.4449 14.7468 17.4449V15.4449ZM12.4456 17.8959C12.4456 19.143 13.3773 20.3469 14.7468 20.3469V18.3469C14.7028 18.3469 14.639 18.329 14.5716 18.2539C14.5028 18.1771 14.4456 18.053 14.4456 17.8959H12.4456ZM14.7468 20.3469C16.1162 20.3469 17.0479 19.143 17.0479 17.8959H15.0479C15.0479 18.053 14.9907 18.1771 14.9219 18.2539C14.8545 18.329 14.7907 18.3469 14.7468 18.3469V20.3469ZM17.0479 17.8959C17.0479 16.6488 16.1162 15.4449 14.7468 15.4449V17.4449C14.7907 17.4449 14.8545 17.4628 14.9219 17.538C14.9907 17.6147 15.0479 17.7388 15.0479 17.8959H17.0479Z" fill="white" mask="url(#path-5-inside-3_379_852)"/>
<mask id="path-7-inside-4_379_852" fill="white">
<path d="M4.33718 2.41846H3.46973V4.35316H4.33718V2.41846Z"/>
</mask>
<path d="M4.33718 2.41846H3.46973V4.35316H4.33718V2.41846Z" fill="black"/>
<path d="M3.46973 2.41846V1.41846H2.46973V2.41846H3.46973ZM4.33718 2.41846H5.33718V1.41846H4.33718V2.41846ZM4.33718 4.35316V5.35316H5.33718V4.35316H4.33718ZM3.46973 4.35316H2.46973V5.35316H3.46973V4.35316ZM3.46973 3.41846H4.33718V1.41846H3.46973V3.41846ZM3.33718 2.41846V4.35316H5.33718V2.41846H3.33718ZM4.33718 3.35316H3.46973V5.35316H4.33718V3.35316ZM4.46973 4.35316V2.41846H2.46973V4.35316H4.46973Z" fill="white" mask="url(#path-7-inside-4_379_852)"/>
<path d="M4.40332 15.4614V13.5593H16.8488V15.4614H4.40332Z" fill="#4AB6FF" stroke="white"/>
<mask id="path-10-inside-5_379_852" fill="white">
<path d="M17.7827 16.4451H3.46973V12.5757H17.7827V16.4451ZM4.33718 15.4777H16.9153V13.543H4.33718V15.4777Z"/>
</mask>
<path d="M17.7827 16.4451H3.46973V12.5757H17.7827V16.4451ZM4.33718 15.4777H16.9153V13.543H4.33718V15.4777Z" fill="black"/>
<path d="M17.7827 16.4451V17.4451H18.7827V16.4451H17.7827ZM3.46973 16.4451H2.46973V17.4451H3.46973V16.4451ZM3.46973 12.5757V11.5757H2.46973V12.5757H3.46973ZM17.7827 12.5757H18.7827V11.5757H17.7827V12.5757ZM4.33718 15.4777H3.33718V16.4777H4.33718V15.4777ZM16.9153 15.4777V16.4777H17.9153V15.4777H16.9153ZM16.9153 13.543H17.9153V12.543H16.9153V13.543ZM4.33718 13.543V12.543H3.33718V13.543H4.33718ZM17.7827 15.4451H3.46973V17.4451H17.7827V15.4451ZM4.46973 16.4451V12.5757H2.46973V16.4451H4.46973ZM3.46973 13.5757H17.7827V11.5757H3.46973V13.5757ZM16.7827 12.5757V16.4451H18.7827V12.5757H16.7827ZM4.33718 16.4777H16.9153V14.4777H4.33718V16.4777ZM17.9153 15.4777V13.543H15.9153V15.4777H17.9153ZM16.9153 12.543H4.33718V14.543H16.9153V12.543ZM3.33718 13.543V15.4777H5.33718V13.543H3.33718Z" fill="white" mask="url(#path-10-inside-5_379_852)"/>
<mask id="path-12-inside-6_379_852" fill="white">
<path d="M4.33727 2.90206H1.30118C0.583709 2.90206 0 2.25113 0 1.45103C0 0.650931 0.583709 0 1.30118 0H4.33727V2.90206ZM1.30118 0.967352C1.06202 0.967352 0.867453 1.18433 0.867453 1.45103C0.867453 1.71773 1.06202 1.9347 1.30118 1.9347H3.46981V0.967352H1.30118Z"/>
</mask>
<path d="M4.33727 2.90206H1.30118C0.583709 2.90206 0 2.25113 0 1.45103C0 0.650931 0.583709 0 1.30118 0H4.33727V2.90206ZM1.30118 0.967352C1.06202 0.967352 0.867453 1.18433 0.867453 1.45103C0.867453 1.71773 1.06202 1.9347 1.30118 1.9347H3.46981V0.967352H1.30118Z" fill="black"/>
<path d="M4.33727 2.90206V3.90206H5.33727V2.90206H4.33727ZM4.33727 0H5.33727V-1H4.33727V0ZM3.46981 1.9347V2.9347H4.46981V1.9347H3.46981ZM3.46981 0.967352H4.46981V-0.0326478H3.46981V0.967352ZM4.33727 1.90206H1.30118V3.90206H4.33727V1.90206ZM1.30118 1.90206C1.25719 1.90206 1.19343 1.88411 1.12604 1.80896C1.05724 1.73223 1 1.60811 1 1.45103H-1C-1 2.69811 -0.0683005 3.90206 1.30118 3.90206V1.90206ZM1 1.45103C1 1.29394 1.05724 1.16983 1.12604 1.0931C1.19343 1.01795 1.25719 1 1.30118 1V-1C-0.0683005 -1 -1 0.203949 -1 1.45103H1ZM1.30118 1H4.33727V-1H1.30118V1ZM3.33727 0V2.90206H5.33727V0H3.33727ZM1.30118 -0.0326478C0.410013 -0.0326478 -0.132547 0.737347 -0.132547 1.45103H1.86745C1.86745 1.63131 1.71403 1.96735 1.30118 1.96735V-0.0326478ZM-0.132547 1.45103C-0.132547 2.16471 0.410013 2.9347 1.30118 2.9347V0.934704C1.71403 0.934704 1.86745 1.27075 1.86745 1.45103H-0.132547ZM1.30118 2.9347H3.46981V0.934704H1.30118V2.9347ZM4.46981 1.9347V0.967352H2.46981V1.9347H4.46981ZM3.46981 -0.0326478H1.30118V1.96735H3.46981V-0.0326478Z" fill="white" mask="url(#path-12-inside-6_379_852)"/>
<mask id="path-14-inside-7_379_852" fill="white">
<path d="M8.67458 4.35303H7.80713V11.1245H8.67458V4.35303Z"/>
</mask>
<path d="M8.67458 4.35303H7.80713V11.1245H8.67458V4.35303Z" fill="black"/>
<path d="M7.80713 4.35303V3.35303H6.80713V4.35303H7.80713ZM8.67458 4.35303H9.67458V3.35303H8.67458V4.35303ZM8.67458 11.1245V12.1245H9.67458V11.1245H8.67458ZM7.80713 11.1245H6.80713V12.1245H7.80713V11.1245ZM7.80713 5.35303H8.67458V3.35303H7.80713V5.35303ZM7.67458 4.35303V11.1245H9.67458V4.35303H7.67458ZM8.67458 10.1245H7.80713V12.1245H8.67458V10.1245ZM8.80713 11.1245V4.35303H6.80713V11.1245H8.80713Z" fill="white" mask="url(#path-14-inside-7_379_852)"/>
<mask id="path-16-inside-8_379_852" fill="white">
<path d="M13.4456 4.35303H12.5781V11.1245H13.4456V4.35303Z"/>
</mask>
<path d="M13.4456 4.35303H12.5781V11.1245H13.4456V4.35303Z" fill="black"/>
<path d="M12.5781 4.35303V3.35303H11.5781V4.35303H12.5781ZM13.4456 4.35303H14.4456V3.35303H13.4456V4.35303ZM13.4456 11.1245V12.1245H14.4456V11.1245H13.4456ZM12.5781 11.1245H11.5781V12.1245H12.5781V11.1245ZM12.5781 5.35303H13.4456V3.35303H12.5781V5.35303ZM12.4456 4.35303V11.1245H14.4456V4.35303H12.4456ZM13.4456 10.1245H12.5781V12.1245H13.4456V10.1245ZM13.5781 11.1245V4.35303H11.5781V11.1245H13.5781Z" fill="white" mask="url(#path-16-inside-8_379_852)"/>
<mask id="path-18-inside-9_379_852" fill="white">
<path d="M17.783 4.35303H16.9155V11.1245H17.783V4.35303Z"/>
</mask>
<path d="M17.783 4.35303H16.9155V11.1245H17.783V4.35303Z" fill="black"/>
<path d="M16.9155 4.35303V3.35303H15.9155V4.35303H16.9155ZM17.783 4.35303H18.783V3.35303H17.783V4.35303ZM17.783 11.1245V12.1245H18.783V11.1245H17.783ZM16.9155 11.1245H15.9155V12.1245H16.9155V11.1245ZM16.9155 5.35303H17.783V3.35303H16.9155V5.35303ZM16.783 4.35303V11.1245H18.783V4.35303H16.783ZM17.783 10.1245H16.9155V12.1245H17.783V10.1245ZM17.9155 11.1245V4.35303H15.9155V11.1245H17.9155Z" fill="white" mask="url(#path-18-inside-9_379_852)"/>
</svg>
