<svg width="43" height="43" viewBox="0 0 43 43" fill="none" xmlns="http://www.w3.org/2000/svg">
<path fill-rule="evenodd" clip-rule="evenodd" d="M7.81395 27.1002C6.36967 26.8348 4.97583 26.579 3.58199 26.3225C2.78248 26.1754 1.98108 26.0372 1.18417 25.8762C0.495715 25.7371 0.0190643 25.2268 0.0123159 24.5502C-0.00733735 22.5977 0.00533004 20.6448 0.00533004 18.6589C0.469195 18.6589 0.918024 18.6589 1.41622 18.6589C1.41622 20.0639 1.41622 21.4714 1.41622 22.8997C4.74414 22.8997 8.02315 22.8997 11.3339 22.8997C11.3339 20.537 11.3339 18.1756 11.3339 15.7878C8.05228 15.7878 4.77314 15.7878 1.44523 15.7878C1.44523 16.2261 1.44523 16.6796 1.44523 17.1628C0.948332 17.1628 0.499859 17.1628 0.0246293 17.1628C0.0246293 15.8643 -0.0429731 14.5674 0.0458217 13.2815C0.117805 12.2395 1.05074 11.4763 2.09189 11.4714C4.96245 11.4581 7.83301 11.4552 10.7036 11.4726C11.897 11.4797 12.7811 12.441 12.784 13.6901C12.7905 16.6285 12.7861 19.567 12.7862 22.5054C12.7862 22.667 12.7862 22.8289 12.7862 22.9533C13.3844 22.9533 13.9422 22.9533 14.5743 22.9533C13.9887 21.7077 14.2257 20.4472 14.2164 19.2144C14.1893 15.6049 14.2112 11.9951 14.1962 8.38554C14.1952 8.16152 14.0928 7.89394 13.9487 7.72268C13.4477 7.12666 13.3529 6.41881 13.2675 5.68458C13.1315 4.51486 13.0802 3.37246 13.6629 2.28497C14.5926 0.550133 16.5722 -0.320507 18.6764 0.10807C20.4255 0.464441 21.8105 2.04687 22.0053 3.90428C22.0552 4.38095 22.0082 4.80571 21.4634 5.0296C21.8222 5.5749 22.1653 6.09108 22.5029 6.61084C22.8891 7.20507 22.7869 7.57218 22.1502 7.90182C22.0713 7.94264 21.9947 7.9893 21.9127 8.02248C21.527 8.17847 21.2674 8.36024 21.2703 8.88107C21.2737 9.4827 20.9036 9.96761 20.4019 10.3667C21.0065 11.0799 21.6001 11.7809 22.1948 12.4808C22.6278 12.9906 23.0784 13.4864 23.4893 14.0137C23.6865 14.2667 23.8991 14.3387 24.205 14.336C25.788 14.3219 27.3717 14.3458 28.9546 14.3216C29.6316 14.3115 30.2716 14.4116 30.9065 14.644C31.7092 14.9377 32.5262 15.1925 33.3435 15.4665C33.447 14.924 33.3775 14.4909 33.0057 14.0812C32.4873 13.5103 32.0251 12.8865 31.5592 12.2697C31.3744 12.025 31.2199 11.9581 30.9026 12.0618C29.8546 12.4042 28.7427 11.9879 28.134 11.0815C27.5198 10.1668 27.5625 8.97702 28.2402 8.11987C28.9124 7.26975 30.0226 6.95456 31.0349 7.32645C32.0605 7.70323 32.7215 8.68916 32.6641 9.79097C32.6512 10.0398 32.6165 10.3107 32.5048 10.5258C32.322 10.8786 32.4249 11.1099 32.6571 11.3861C33.2308 12.0684 33.7576 12.7909 34.3338 13.4708C34.6687 13.8661 34.8844 14.2734 34.8077 14.8057C34.7934 14.9047 34.8187 15.0094 34.8212 15.0458C35.506 15.0458 36.1666 15.0399 36.8271 15.0478C37.378 15.0542 37.6412 15.3178 37.6433 15.8769C37.6493 17.4729 37.6495 19.069 37.6432 20.665C37.641 21.2193 37.3739 21.4813 36.8197 21.4877C36.1699 21.4951 35.52 21.4895 34.8045 21.4895C34.8045 21.7113 34.8044 21.9131 34.8045 22.1148C34.805 22.8754 34.7942 23.6364 34.8081 24.3968C34.8358 25.9066 35.9867 27.1091 37.4877 27.213C38.1393 27.2581 38.3522 27.481 38.3551 28.1329C38.3581 28.787 38.3558 29.4412 38.3558 30.0911C38.7381 30.208 39.0959 30.2942 39.4355 30.4275C39.7609 30.5553 40.0676 30.7322 40.4079 30.9C40.1302 31.3188 39.8849 31.6887 39.63 32.073C38.1106 31.2714 36.5142 31.3589 34.9487 31.7079C32.8543 32.1751 31.3297 34.1517 31.263 36.313C31.2393 37.0838 31.2592 37.8563 31.2592 38.673C31.8066 38.673 32.3213 38.6906 32.833 38.6601C32.957 38.6527 33.1045 38.5083 33.1851 38.3885C33.9567 37.2411 34.7267 36.0924 35.4728 34.9281C35.7243 34.5358 36.025 34.3633 36.494 34.3696C38.0166 34.3906 39.54 34.3775 41.202 34.3775C40.9083 33.7694 40.6504 33.2356 40.365 32.6447C40.6432 32.3934 40.9812 32.0877 41.3443 31.7595C42.1973 32.7316 42.7064 33.8578 42.5687 35.1119C42.504 35.7012 42.5616 36.2405 42.6054 36.8024C42.8055 39.3739 41.2337 41.7911 38.8044 42.645C36.3905 43.4932 33.6809 42.6076 32.2627 40.4792C32.0727 40.1939 31.8897 40.0676 31.5549 40.0992C31.2468 40.1283 30.9338 40.1123 30.6233 40.1035C30.1037 40.0888 29.8424 39.8227 29.835 39.2906C29.8266 38.6968 29.833 38.1029 29.833 37.3801C29.6174 37.6172 29.4674 37.7679 29.3331 37.9319C28.4948 38.9562 27.4242 39.4068 26.1033 39.398C22.3748 39.373 18.6459 39.3935 14.9171 39.3818C14.6065 39.3807 14.466 39.4849 14.324 39.7594C13.2515 41.8335 11.5365 42.9551 9.22141 42.9506C6.90528 42.9461 5.19699 41.812 4.13264 39.7357C3.99518 39.4677 3.86104 39.3758 3.57003 39.3821C2.66776 39.4015 1.76489 39.3929 0.86238 39.3877C0.255023 39.3843 -0.00556155 39.1201 0.00592259 38.5111C0.0369416 36.8738 0.444334 35.3359 1.19104 33.8804C1.32613 33.617 1.40237 33.2962 1.41172 32.9991C1.44002 32.105 1.42048 31.2094 1.42238 30.3144C1.42404 29.6058 1.6549 29.3683 2.34442 29.3656C3.01027 29.3631 3.67966 29.3214 4.34124 29.3749C5.47285 29.4668 6.54004 29.2433 7.57835 28.8277C7.67958 28.7872 7.79785 28.6376 7.80342 28.5329C7.82792 28.0729 7.81395 27.6105 7.81395 27.1002ZM33.384 21.6468C32.4771 21.9872 31.9717 22.7238 31.9668 23.6809C31.9574 25.441 31.9508 27.2013 31.9688 28.9612C31.9784 29.9124 31.6605 30.699 30.9907 31.366C29.6015 32.7501 28.2208 34.1429 26.8472 35.5426C26.1855 36.2167 25.4041 36.5325 24.4612 36.5302C19.7854 36.5194 15.1096 36.5253 10.4338 36.5253C10.278 36.5253 10.1221 36.5253 9.96741 36.5253C9.96741 36.0185 9.96741 35.5768 9.96741 35.0795C11.926 35.0795 13.8631 35.0795 15.853 35.0795C15.7368 34.9067 15.6622 34.7983 15.5904 34.6882C14.6004 33.1706 14.7066 31.0793 15.8559 29.677C16.4717 28.9257 17.261 28.4551 18.2155 28.2832C18.8652 28.1662 19.4064 27.909 19.6987 27.2529C16.1868 27.2529 12.7186 27.2529 9.26013 27.2529C9.26013 27.7307 9.26013 28.1725 9.26013 28.6626C10.6808 28.6626 12.0771 28.6626 13.4755 28.6626C13.4755 29.1537 13.4755 29.5953 13.4755 30.0815C12.2016 30.0815 10.9482 30.0765 9.69487 30.0841C9.23775 30.0869 8.76536 30.0513 8.32612 30.1506C5.12631 30.8734 2.97369 32.8174 1.87535 35.9239C1.65147 36.5572 1.56043 37.2382 1.3987 37.938C1.60257 37.9478 1.70356 37.9569 1.80455 37.9569C9.9873 37.9575 18.1699 37.9565 26.3527 37.9588C27.0453 37.959 27.6171 37.7067 28.0797 37.1893C28.6346 36.5691 29.2031 35.9608 29.7446 35.329C29.9016 35.1458 30.0214 34.9116 30.0986 34.6805C30.8773 32.35 32.4259 30.8429 34.8027 30.2652C35.4815 30.1002 36.1975 30.091 36.9174 30.0081C36.9174 29.5591 36.9174 29.0873 36.9174 28.6246C36.8769 28.5999 36.8547 28.5788 36.8288 28.5716C34.5354 27.9368 33.3846 26.4129 33.384 24.0085C33.3839 23.2364 33.384 22.4645 33.384 21.6468ZM15.6466 19.3095C17.0767 19.3095 18.4715 19.3095 19.889 19.3095C19.889 18.5788 19.8756 17.8795 19.8954 17.1811C19.9037 16.8882 19.813 16.6829 19.6057 16.4808C18.8207 15.7159 18.0522 14.9339 17.2669 14.1476C17.6182 13.7928 17.936 13.4718 18.2714 13.1329C18.3997 13.2562 18.5184 13.3653 18.6319 13.4798C19.7723 14.6278 20.9043 15.784 22.0597 16.9163C22.2161 17.0696 22.4864 17.1797 22.7054 17.1818C24.6863 17.2019 26.6676 17.1936 28.6488 17.1936C28.7925 17.1936 28.9362 17.1936 29.0955 17.1936C29.0955 16.6979 29.0955 16.2461 29.0955 15.7616C28.9094 15.7616 28.7492 15.7616 28.5891 15.7616C26.9629 15.7616 25.3364 15.7514 23.7102 15.7685C23.287 15.7729 22.9896 15.6305 22.7176 15.3055C21.517 13.87 20.2996 12.4488 19.0817 11.0282C18.9834 10.9138 18.8375 10.7654 18.7112 10.7628C17.6962 10.7411 16.6807 10.7506 15.6466 10.7506C15.6466 13.6244 15.6466 16.4508 15.6466 19.3095ZM21.3316 19.3415C22.2959 19.3415 23.2385 19.3394 24.1812 19.3419C27.3176 19.35 29.2854 22.2961 28.1024 25.2166C27.6614 26.305 27.2073 27.3879 26.7604 28.4739C26.2475 29.7201 25.7361 30.967 25.2053 32.2586C25.975 32.4048 26.4752 32.8605 26.8391 33.5217C27.9203 32.4298 28.9593 31.3698 30.0115 30.3232C30.3828 29.954 30.5518 29.5312 30.5475 29.0053C30.5345 27.4551 30.5601 25.9043 30.5367 24.3542C30.5216 23.3541 30.5939 22.3886 31.2372 21.5134C30.4981 21.4306 29.9131 21.1519 29.5084 20.5676C29.1053 19.9853 29.0358 19.3384 29.2242 18.6256C29.015 18.6256 28.8542 18.6256 28.6933 18.6256C26.6674 18.6256 24.6412 18.6362 22.6153 18.617C22.1842 18.6129 21.754 18.4996 21.3315 18.4379C21.3316 18.6572 21.3316 18.9789 21.3316 19.3415ZM15.642 20.7735C15.6345 20.9056 15.6329 20.9652 15.6274 21.0246C15.5002 22.4083 16.3443 22.9671 17.4657 22.9377C19.5943 22.8817 21.7254 22.9209 23.8554 22.9217C24.7621 22.9222 25.0308 23.315 24.7066 24.1664C23.7385 26.7096 22.769 29.252 21.8004 31.7951C21.7506 31.9259 21.7044 32.058 21.6419 32.2295C22.243 32.2295 22.7755 32.213 23.3064 32.2363C23.5859 32.2485 23.714 32.1563 23.8219 31.8907C24.7898 29.5074 25.78 27.1336 26.7537 24.7526C27.6076 22.6649 26.3413 20.7764 24.0917 20.7742C21.4292 20.7714 18.7665 20.7736 16.104 20.7736C15.9599 20.7735 15.8157 20.7735 15.642 20.7735ZM19.889 35.1515C19.889 34.7074 19.9102 34.3932 19.885 34.0825C19.8145 33.2153 20.0171 32.4147 20.3346 31.611C21.2298 29.3458 22.0814 27.0629 22.9498 24.7868C22.9995 24.6564 23.0455 24.5247 23.0989 24.3775C22.4368 24.3775 21.8363 24.3775 21.2113 24.3775C21.462 25.1775 21.1482 25.9534 21.2637 26.752C21.3684 27.4759 20.9454 28.1515 20.429 28.7036C19.8642 29.3073 19.1407 29.5519 18.3583 29.7206C17.1794 29.9745 16.3978 30.9808 16.342 32.2312C16.2853 33.5014 16.9844 34.609 18.1474 34.941C18.6859 35.0948 19.2711 35.0825 19.889 35.1515ZM20.467 3.58956C20.2137 2.34238 19.0514 1.44476 17.7304 1.44214C16.1074 1.43903 14.8632 2.30299 14.668 3.71738C14.5643 4.46903 14.69 5.25648 14.743 6.02544C14.7907 6.7167 15.3016 7.18573 15.9291 7.16401C16.5618 7.14217 17.0292 6.64235 17.045 5.953C17.0558 5.47596 17.0458 4.99857 17.0483 4.5213C17.0517 3.82431 17.2855 3.5917 17.9875 3.59003C18.8115 3.58812 19.6354 3.58956 20.467 3.58956ZM39.4385 35.8094C40.0403 37.5039 39.7047 38.8221 38.5037 39.6276C37.259 40.4623 35.9648 40.2277 34.5739 38.9075C34.3016 39.2945 34.0303 39.6804 33.7577 40.0681C34.9813 41.5107 37.0238 41.9449 38.7494 41.1235C40.4716 40.3041 41.4575 38.4197 41.1365 36.5616C41.0064 35.8094 41.0064 35.8094 40.2677 35.8094C40.0022 35.8094 39.7369 35.8094 39.4385 35.8094ZM1.42297 14.301C4.76497 14.301 8.0518 14.301 11.3646 14.301C11.3646 14.0662 11.3727 13.8594 11.3628 13.6534C11.3401 13.1797 11.0797 12.9028 10.6071 12.9018C7.79963 12.8948 4.99217 12.895 2.18459 12.9016C1.70913 12.9027 1.4476 13.1764 1.42463 13.6483C1.41468 13.8548 1.42297 14.0622 1.42297 14.301ZM15.6485 9.31323C16.8562 9.31323 18.0368 9.32408 19.2171 9.30678C19.5851 9.30141 19.8861 9.05352 19.8637 8.69608C19.8081 7.81422 19.9838 7.122 20.9899 6.92616C20.5653 6.2602 20.1844 5.6631 19.7754 5.02161C19.6187 5.02161 19.3977 5.02161 19.1764 5.02161C18.9465 5.02161 18.7165 5.02161 18.4933 5.02161C18.3034 7.74906 17.819 8.35904 15.6485 8.64082C15.6485 8.84216 15.6485 9.04672 15.6485 9.31323ZM16.293 25.7852C17.2103 25.7852 18.1277 25.789 19.045 25.7838C19.5655 25.7808 19.8854 25.5014 19.8853 25.0688C19.885 24.6353 19.5665 24.3561 19.0445 24.3552C17.2395 24.3512 15.4344 24.3512 13.6295 24.3552C13.1052 24.3563 12.7899 24.6334 12.7899 25.0692C12.7899 25.5035 13.1073 25.7807 13.63 25.7838C14.5176 25.7893 15.4054 25.7852 16.293 25.7852ZM11.3487 24.3933C8.02528 24.3933 4.74875 24.3933 1.47222 24.3933C1.46915 24.4312 1.46607 24.4695 1.46299 24.5076C4.75325 24.9105 7.94561 26.0683 11.3487 25.7517C11.3487 25.2911 11.3487 24.8496 11.3487 24.3933ZM5.52494 39.3896C6.55164 40.8969 7.86155 41.6424 9.56925 41.5141C11.0038 41.4064 12.1061 40.6866 12.9223 39.3894C12.3588 39.3894 11.887 39.3739 11.4171 39.3974C11.2395 39.4062 11.0423 39.4695 10.895 39.5693C9.83954 40.2847 8.62708 40.2864 7.5716 39.5632C7.45569 39.4837 7.31279 39.4024 7.17972 39.3974C6.66625 39.3783 6.15148 39.3896 5.52494 39.3896ZM21.3273 35.0876C22.5153 35.0876 23.663 35.0884 24.8106 35.0858C24.8827 35.0857 24.9559 35.0641 25.027 35.0466C25.3956 34.9555 25.5823 34.7063 25.5612 34.3353C25.5401 33.9651 25.3165 33.6884 24.9552 33.6802C23.7522 33.6525 22.5483 33.6697 21.3273 33.6697C21.3273 34.1528 21.3273 34.5931 21.3273 35.0876ZM36.1959 20.0393C36.1959 18.8329 36.1959 17.6673 36.1959 16.4368C35.7988 16.4884 35.4342 16.5163 35.0804 16.5932C34.9739 16.6162 34.8196 16.774 34.8177 16.8726C34.7986 17.922 34.8057 18.9721 34.8057 20.0393C35.2918 20.0393 35.7287 20.0393 36.1959 20.0393ZM30.1877 8.60346C29.6021 8.6043 29.1171 9.09828 29.1253 9.68571C29.1336 10.2755 29.6264 10.7573 30.2107 10.7466C30.7751 10.7363 31.245 10.2567 31.2505 9.68571C31.2559 9.09661 30.7707 8.60263 30.1877 8.60346ZM33.3837 18.7592C33.3837 18.2418 33.3917 17.7242 33.3761 17.2075C33.3734 17.1152 33.2901 16.9713 33.212 16.9438C32.3403 16.6376 31.4623 16.3494 30.5789 16.0539C30.5789 16.4944 30.5789 16.8831 30.5789 17.2763C31.9891 17.0461 32.8057 17.4963 33.3837 18.7592ZM36.6381 35.7695C36.453 36.0452 36.3125 36.2522 36.1741 36.4607C35.6884 37.1933 35.6887 37.1934 36.3581 37.7901C36.7312 38.123 37.183 38.1262 37.5007 37.7981C37.8073 37.4816 37.8119 37.0361 37.4949 36.6792C37.2309 36.3817 36.9503 36.0993 36.6381 35.7695ZM31.96 19.3437C31.9626 18.9606 31.6484 18.6357 31.2669 18.6273C30.8874 18.6191 30.5596 18.9316 30.5457 19.3154C30.531 19.7165 30.863 20.0596 31.2599 20.054C31.6416 20.0484 31.9573 19.7282 31.96 19.3437ZM2.86287 31.5736C3.14358 31.3112 3.38226 31.0882 3.67268 30.8167C3.3439 30.8167 3.11339 30.8167 2.86287 30.8167C2.86287 31.0526 2.86287 31.2695 2.86287 31.5736Z" fill="#025CA1"/>
</svg>
