<svg width="44" height="50" viewBox="0 0 44 50" fill="none" xmlns="http://www.w3.org/2000/svg">
<path fill-rule="evenodd" clip-rule="evenodd" d="M21.3977 49.9763C20.5263 49.7788 19.6892 49.5053 19.0167 48.873C17.7247 47.6585 17.2315 46.1778 17.6981 44.456C18.1859 42.6569 19.3923 41.5591 21.2263 41.2761C23.2727 40.9604 24.9422 41.9236 25.8799 43.8326C25.945 43.9651 26.1533 44.1057 26.2966 44.1074C27.7668 44.1257 29.2382 44.1477 30.7077 44.1072C32.6243 44.054 34.3038 42.7551 34.6895 41.1729C33.9442 41.1264 33.1537 41.1964 32.4287 41.0096C30.4363 40.4959 29.187 38.8877 29.1685 36.8113C29.1329 32.8267 29.1293 28.8414 29.1707 24.8571C29.1927 22.7458 30.6244 21.0367 32.5814 20.6061C34.6216 20.1573 36.5286 21.147 37.5202 23.1467C37.5853 23.2779 37.7933 23.4052 37.9425 23.4149C38.8722 23.475 39.8039 23.501 40.791 23.5405C41.0535 16.3805 38.5332 10.4041 32.5337 6.30629C26.2353 2.00425 19.4453 1.63641 12.7888 5.34686C5.77285 9.25776 2.74965 15.6017 2.95825 23.5404C3.98004 23.501 4.95578 23.4722 5.92994 23.4138C6.0446 23.4069 6.19466 23.259 6.25247 23.1393C7.76044 20.022 11.6174 19.5734 13.7324 22.2811C14.3442 23.0642 14.6031 23.9823 14.6054 24.9643C14.6146 28.8841 14.6243 32.8042 14.6031 36.724C14.5915 38.8545 13.3016 40.4998 11.2881 41.0538C9.49276 41.5476 7.45729 40.7464 6.52726 39.011C6.1629 38.331 5.75539 38.2185 5.10741 38.2554C3.86695 38.3265 2.6991 38.1029 1.7007 37.278C0.633335 36.3963 0.0795284 35.2512 0.0738316 33.8822C0.0556502 29.5723 -0.10786 25.2522 0.119649 20.9539C0.532003 13.1611 4.18719 7.18519 10.7802 3.08055C13.6398 1.3003 16.7915 0.337214 20.1498 0.0800341C20.2763 0.0703959 20.4 0.0274505 20.5252 0C21.4304 0 22.3355 0 23.2406 0C24.1013 0.12432 24.9666 0.2218 25.8218 0.376498C35.7537 2.17371 43.3352 10.8532 43.6632 20.9506C43.803 25.2561 43.7247 29.57 43.6886 33.8796C43.669 36.2134 42.0745 37.9354 39.772 38.2112C39.1584 38.2846 38.5287 38.2221 37.8837 38.2221C37.8837 38.7547 37.8858 39.176 37.8834 39.5972C37.8609 43.8325 34.6913 47.0258 30.485 47.047C29.1601 47.0538 27.8349 47.0611 26.5102 47.0396C26.1441 47.0336 25.9278 47.1084 25.7852 47.4849C25.6618 47.8107 25.4403 48.1085 25.2212 48.3861C24.5149 49.2809 23.5414 49.7229 22.4647 49.9762C22.1089 49.9763 21.7533 49.9763 21.3977 49.9763ZM11.7 30.8427C11.7 28.9069 11.6963 26.9714 11.702 25.0357C11.704 24.3505 11.4362 23.8286 10.8079 23.5492C9.8456 23.1213 8.80575 23.8352 8.79641 24.9425C8.77981 26.9105 8.79108 28.8787 8.79096 30.8469C8.79084 32.7824 8.79472 34.7182 8.78902 36.6539C8.78696 37.339 9.05483 37.8609 9.68318 38.1402C10.6455 38.5681 11.6853 37.8544 11.6945 36.7471C11.7111 34.7792 11.6993 32.8107 11.7 30.8427ZM32.0653 30.8004C32.0653 32.7524 32.0687 34.7045 32.0634 36.6562C32.0614 37.3415 32.3304 37.863 32.9596 38.1413C33.9405 38.575 34.9649 37.8405 34.9711 36.6963C34.9821 34.6468 34.9743 32.5972 34.9743 30.5476C34.9743 28.7098 34.9707 26.8716 34.9762 25.0337C34.9782 24.3483 34.709 23.8271 34.0799 23.5487C33.1167 23.1223 32.0797 23.8366 32.0705 24.9448C32.0543 26.8966 32.0659 28.8486 32.0653 30.8004ZM5.86024 26.3683C5.29965 26.3683 4.76754 26.33 4.24319 26.3778C3.53714 26.4421 2.99097 27.0321 2.98394 27.7589C2.96382 29.8212 2.96298 31.8841 2.9854 33.9465C2.99316 34.6697 3.55205 35.2547 4.2587 35.3142C4.78233 35.3583 5.31262 35.3228 5.86024 35.3228C5.86024 32.332 5.86024 29.3811 5.86024 26.3683ZM37.916 26.3592C37.916 29.3804 37.916 32.3427 37.916 35.328C38.446 35.328 38.9454 35.3538 39.4414 35.322C40.1941 35.2741 40.7749 34.6841 40.7823 33.9152C40.8024 31.8693 40.8028 29.8227 40.7824 27.7766C40.7747 26.9886 40.1749 26.4023 39.3953 26.3638C38.9145 26.3396 38.4315 26.3592 37.916 26.3592ZM23.3336 45.5964C23.3407 44.8004 22.6863 44.1305 21.8949 44.1236C21.1042 44.1164 20.4387 44.7751 20.4318 45.5717C20.4247 46.3675 21.0792 47.0374 21.8704 47.0445C22.6612 47.0514 23.3265 46.3927 23.3336 45.5964Z" fill="#025CA1"/>
</svg>
