<svg width="22" height="26" viewBox="0 0 22 26" fill="none" xmlns="http://www.w3.org/2000/svg">
<path fill-rule="evenodd" clip-rule="evenodd" d="M10.3515 26C9.84271 25.9216 9.3285 25.8699 8.82599 25.7603C5.85336 25.112 3.4965 23.4803 1.83023 20.8491C-1.09622 16.2282 -0.455739 10.2486 3.3397 6.3675C4.27914 5.40683 5.36018 4.65726 6.56686 4.10488C7.10585 3.85823 7.6805 4.07089 7.91521 4.59948C8.15135 5.13145 7.94887 5.72836 7.40606 5.98463C6.15564 6.57477 5.06816 7.38712 4.17371 8.47167C-0.198886 13.7735 2.35101 21.9952 8.88343 23.6598C13.9394 24.948 18.9949 21.4963 19.8836 16.149C20.5783 11.9692 18.4693 7.81888 14.7575 6.06093C14.18 5.78743 13.9193 5.34879 14.0256 4.82969C14.1607 4.1702 14.8202 3.8191 15.4284 4.09448C16.4675 4.56504 17.4229 5.17987 18.2623 5.97163C20.9367 8.49429 22.1845 11.6412 21.978 15.3828C21.7014 20.393 18.0046 24.7727 13.2607 25.7516C12.7339 25.8603 12.1974 25.9184 11.6654 25.9999C11.2274 26 10.7895 26 10.3515 26Z" fill="#939191"/>
<path fill-rule="evenodd" clip-rule="evenodd" d="M11.235 0C11.252 0.0114582 11.2666 0.027169 11.286 0.0335736C11.8007 0.202995 11.9987 0.434512 11.9989 0.882084C12.0001 2.90164 11.9995 4.92119 11.9995 6.94074C11.9995 7.02825 12.0013 7.11586 11.9981 7.20333C11.9805 7.66521 11.5601 8.00015 10.9995 8C10.4387 7.9999 10.0045 7.66451 10.0033 7.20313C9.99786 5.07105 10.0008 2.93891 10.0007 0.80688C10.0007 0.384527 10.3189 0.153961 10.7645 0C10.9214 0 11.0782 0 11.235 0Z" fill="#939191"/>
</svg>
