<svg width="23" height="24" viewBox="0 0 23 24" fill="none" xmlns="http://www.w3.org/2000/svg">
<rect width="23" height="24" fill="#F5F5F5"/>
<path fill-rule="evenodd" clip-rule="evenodd" d="M23 4.26137C23 8.23206 23 12.2028 23 16.1734C22.8492 16.3524 22.7256 16.5673 22.5436 16.7051C20.0962 18.5597 17.6418 20.4053 15.186 22.2488C14.6979 22.6152 14.1964 22.9638 13.7012 23.3206C13.5814 23.3206 13.4616 23.3206 13.3418 23.3206C13.2675 23.2901 13.195 23.254 13.1186 23.23C8.99478 21.9362 4.87134 20.6412 0.745377 19.3545C0.416028 19.2518 0.144607 19.1073 0 18.7806C0 14.8099 0 10.8392 0 6.8685C0.0886569 6.61554 0.272861 6.45394 0.493065 6.31145C1.36526 5.7471 2.23068 5.17231 3.09958 4.6028C5.28551 3.17006 7.47198 1.73804 9.65821 0.305664C9.77802 0.305664 9.89783 0.305664 10.0176 0.305664C10.0724 0.326584 10.1259 0.352299 10.1822 0.367884C14.1847 1.47142 18.1868 2.57658 22.1913 3.6728C22.5459 3.76984 22.8516 3.89794 23 4.26137ZM1.44487 8.00878C1.44145 8.08461 1.43774 8.12884 1.43774 8.17314C1.4375 11.4089 1.4387 14.6447 1.43373 17.8805C1.43349 18.0343 1.49597 18.0777 1.62673 18.1186C4.85001 19.1266 8.07179 20.1395 11.2941 21.1507C11.7904 21.3064 12.2878 21.4583 12.8028 21.6175C12.8028 21.5309 12.8028 21.4714 12.8028 21.4119C12.8028 18.1987 12.8012 14.9853 12.8076 11.7721C12.8079 11.6004 12.7432 11.5446 12.5962 11.4987C9.5937 10.5606 6.5926 9.61799 3.59096 8.67695C2.88602 8.45595 2.18024 8.23758 1.44487 8.00878ZM21.5625 5.91128C21.5046 5.94257 21.4838 5.95066 21.4665 5.96367C19.099 7.74485 16.7308 9.52526 14.3682 11.3129C14.2965 11.3671 14.2457 11.4964 14.2455 11.5907C14.2392 14.7058 14.2402 17.8208 14.2409 20.9359C14.2409 20.9974 14.2502 21.0589 14.257 21.1426C14.3364 21.086 14.3914 21.0487 14.4444 21.0087C16.758 19.2677 19.0702 17.5248 21.3876 15.7891C21.5258 15.6855 21.5659 15.5809 21.5657 15.4176C21.5614 12.3325 21.5625 9.24742 21.5625 6.16232C21.5625 6.08949 21.5625 6.01678 21.5625 5.91128ZM16.3171 8.03701C16.2093 7.99889 16.1482 7.97389 16.0851 7.95537C12.5963 6.92754 9.10698 5.90121 5.61929 4.86948C5.46043 4.82249 5.34355 4.84251 5.20697 4.93356C4.34227 5.51021 3.47152 6.0778 2.60322 6.64905C2.54337 6.68837 2.48748 6.73375 2.40021 6.79807C2.8097 6.92652 3.18422 7.04401 3.55874 7.16143C6.76518 8.16684 9.97198 9.1713 13.1772 10.1808C13.3273 10.2281 13.4357 10.22 13.5615 10.1163C13.8151 9.90709 14.085 9.71755 14.348 9.51956C14.9927 9.03433 15.6373 8.54886 16.3171 8.03701ZM20.6641 4.76195C20.5646 4.72838 20.4965 4.70171 20.4264 4.68235C17.0049 3.73904 13.5836 2.79506 10.1598 1.85979C10.0561 1.83143 9.90591 1.86122 9.81366 1.92045C8.95117 2.47395 8.09647 3.03969 7.23991 3.60249C7.16767 3.64996 7.09818 3.70145 6.99874 3.77128C7.07949 3.79922 7.12544 3.81714 7.17259 3.83111C10.6484 4.85672 14.1239 5.88305 17.6018 6.90147C17.6889 6.927 17.8235 6.89517 17.8988 6.83967C18.6698 6.27123 19.4332 5.69243 20.1986 5.11627C20.3461 5.00513 20.4926 4.89256 20.6641 4.76195Z" fill="#1B85D7"/>
</svg>
