<svg width="25" height="32" viewBox="0 0 25 32" fill="none" xmlns="http://www.w3.org/2000/svg">
<path fill-rule="evenodd" clip-rule="evenodd" d="M11.6828 2C17.047 1.99584 21.3438 5.8093 21.9313 10.8078C22.1744 12.8761 21.7478 14.844 21.0323 16.7659C20.0232 19.4761 18.5703 21.9519 16.8983 24.2912C15.635 26.0586 14.2636 27.7496 12.9154 29.4548C12.3351 30.1887 11.706 30.1723 11.0979 29.4621C8.31445 26.2114 5.81049 22.7675 3.90669 18.9185C3.04119 17.1687 2.39671 15.345 2.10354 13.3991C1.43631 8.96948 4.05357 4.40333 8.2338 2.74294C9.44738 2.26084 10.7007 2.008 11.6828 2ZM11.9812 27.3819C12.1479 27.1938 12.2658 27.0767 12.3654 26.9457C13.4412 25.5305 14.5661 24.1489 15.5757 22.6879C17.1699 20.381 18.5192 17.9342 19.4017 15.2549C19.9192 13.6838 20.1916 12.0876 19.8491 10.4359C18.7199 4.99123 12.7047 2.27733 7.93256 5.1351C5.09203 6.83598 3.81172 9.45024 4.0659 12.7632C4.18978 14.3788 4.76954 15.878 5.42235 17.3449C6.56961 19.9229 8.0656 22.2948 9.74513 24.5527C10.4515 25.502 11.2118 26.4116 11.9812 27.3819Z" fill="#1B85D7"/>
<path fill-rule="evenodd" clip-rule="evenodd" d="M17 11.519C16.9944 13.9828 14.9629 16.0024 12.4929 16C10.0185 15.9975 7.98721 13.9471 8.00006 11.4651C8.01253 9.01283 10.0622 6.99187 12.5287 7.00002C14.9863 7.00818 17.0055 9.04893 17 11.519ZM14.7494 11.5147C14.7546 10.2537 13.763 9.25231 12.5073 9.25025C11.2522 9.24828 10.2505 10.2495 10.2518 11.5045C10.2533 12.7458 11.2407 13.7407 12.4796 13.7489C13.7442 13.7573 14.7443 12.7729 14.7494 11.5147Z" fill="#1B85D7"/>
</svg>
