<svg width="23" height="25" viewBox="0 0 23 25" fill="none" xmlns="http://www.w3.org/2000/svg">
<path fill-rule="evenodd" clip-rule="evenodd" d="M1.13184 22.2602C1.13184 17.8921 1.13184 13.5241 1.13184 9.15591C1.14457 9.11314 1.1611 9.07122 1.1696 9.02735C1.37057 7.98139 1.93807 7.31778 2.85875 7.02603C2.98089 6.98735 3.10852 6.97043 3.24773 6.94043C3.16226 6.67929 3.08305 6.43648 3.00356 6.19379C2.67683 5.19603 3.03562 4.3388 3.93051 3.97733C6.38697 2.98507 8.84331 1.99251 11.2997 1C11.437 1 11.5742 1 11.7114 1C11.7359 1.01265 11.7594 1.03098 11.7852 1.03697C12.335 1.16638 12.6972 1.53334 12.8881 2.11599C13.031 2.55249 13.1801 2.98684 13.3085 3.42866C13.3594 3.60377 13.4293 3.6601 13.5968 3.65882C14.8239 3.64972 16.0509 3.65173 17.278 3.65466C18.1803 3.6568 18.7885 4.33409 18.7916 5.33344C18.7928 5.6844 18.7918 6.03542 18.7918 6.38638C18.7918 6.57389 18.7918 6.76141 18.7918 6.94446C20.1689 7.12257 20.9733 8.1287 20.9736 9.64098C20.9738 10.4421 20.976 11.2433 20.9713 12.0444C20.9705 12.1781 20.9953 12.2452 21.127 12.2769C21.4162 12.3464 21.6765 12.5063 21.845 12.7744C21.9946 13.0123 22.0896 13.2927 22.2086 13.5544C22.2086 14.9595 22.2086 16.3646 22.2086 17.7698C22.1629 17.903 22.1251 18.0404 22.07 18.1684C21.8506 18.6774 21.4772 18.9683 20.9737 19.0829C20.9737 19.1762 20.9737 19.2587 20.9737 19.3412C20.9731 20.2248 20.982 21.1086 20.9697 21.9921C20.9546 23.0775 20.3004 24.0269 19.3699 24.341C19.2339 24.387 19.0944 24.4202 18.9565 24.4594C13.6873 24.4594 8.41816 24.4594 3.14898 24.4594C3.11099 24.4452 3.07383 24.4252 3.0348 24.4177C2.32595 24.279 1.7803 23.8665 1.43332 23.1691C1.29432 22.89 1.23004 22.5646 1.13184 22.2602ZM19.7387 12.2223C19.7387 11.302 19.7404 10.4167 19.7381 9.53149C19.7362 8.80911 19.3046 8.32868 18.651 8.32849C13.588 8.32709 8.52499 8.32715 3.46193 8.32837C2.79557 8.32855 2.36739 8.80617 2.36723 9.54554C2.36635 13.6461 2.36641 17.7465 2.36718 21.8471C2.36729 22.5992 2.79777 23.0807 3.47165 23.0809C8.52784 23.0818 13.584 23.0818 18.6402 23.0807C19.3019 23.0806 19.7364 22.5968 19.7381 21.8625C19.7402 21.0073 19.739 20.152 19.7381 19.2968C19.738 19.2318 19.7304 19.1667 19.7259 19.0951C19.1016 19.0951 18.4979 19.0984 17.8944 19.0937C17.6274 19.0916 17.3581 19.0948 17.0939 19.059C15.6337 18.8611 14.5016 17.5362 14.3934 15.9129C14.2849 14.2848 15.2215 12.7894 16.6441 12.3564C16.9374 12.2671 17.2514 12.2358 17.557 12.2281C18.2755 12.21 18.9947 12.2223 19.7387 12.2223ZM12.0659 3.6353C11.9423 3.25495 11.8294 2.88841 11.7029 2.5278C11.653 2.38556 11.5449 2.35446 11.4129 2.40933C11.0664 2.55328 10.7182 2.69143 10.3707 2.83214C8.36969 3.64214 6.36869 4.45214 4.36779 5.26263C4.09925 5.37139 4.07257 5.43664 4.17138 5.74037C4.27865 6.07 4.39777 6.39524 4.49246 6.72927C4.54175 6.90316 4.61306 6.959 4.78104 6.95821C6.56438 6.95002 8.34779 6.95314 10.1311 6.95314C10.1979 6.95314 10.2646 6.95314 10.3434 6.95314C10.3471 6.85727 10.3525 6.78285 10.3526 6.70837C10.3535 6.21976 10.3485 5.73108 10.3544 5.24259C10.3637 4.47884 10.8282 3.84737 11.5006 3.69255C11.6731 3.65271 11.8535 3.65546 12.0659 3.6353ZM19.0362 13.5968C18.8991 13.5968 18.7618 13.5957 18.6247 13.5971C18.1585 13.6018 17.6871 13.56 17.2271 13.6225C16.2434 13.7564 15.559 14.7219 15.6264 15.8095C15.6925 16.8748 16.4936 17.7091 17.4791 17.7181C18.5421 17.7278 19.6053 17.7211 20.6683 17.72C20.9102 17.7197 20.973 17.6499 20.9733 17.3823C20.9743 16.2296 20.9744 15.0768 20.9732 13.924C20.9728 13.664 20.9141 13.5982 20.6823 13.5975C20.1335 13.5957 19.5849 13.5969 19.0362 13.5968ZM11.5886 6.93664C13.592 6.93664 15.5682 6.93664 17.5569 6.93664C17.5569 6.41014 17.5575 5.8999 17.5567 5.38965C17.5562 5.08403 17.5077 5.02917 17.2345 5.02898C16.2339 5.02825 15.2334 5.02868 14.2328 5.02868C13.4447 5.02868 12.6565 5.0302 11.8684 5.02751C11.71 5.02697 11.5915 5.07707 11.59 5.27583C11.5859 5.82414 11.5886 6.3725 11.5886 6.93664Z" fill="#939191"/>
</svg>
