<svg width="23" height="23" viewBox="0 0 23 23" fill="none" xmlns="http://www.w3.org/2000/svg">
<path fill-rule="evenodd" clip-rule="evenodd" d="M23 3.95314C23 7.92126 23 11.8894 23 15.8574C22.8492 16.0364 22.7256 16.2511 22.5436 16.3888C20.0962 18.2422 17.6418 20.0866 15.186 21.9289C14.6979 22.2951 14.1964 22.6435 13.7012 23C13.5814 23 13.4616 23 13.3418 23C13.2675 22.9695 13.195 22.9334 13.1186 22.9095C8.99478 21.6165 4.87134 20.3224 0.745377 19.0365C0.416028 18.9339 0.144607 18.7895 0 18.4629C0 14.4948 0 10.5267 0 6.55857C0.0886569 6.30578 0.272861 6.14428 0.493065 6.00189C1.36526 5.4379 2.23068 4.86349 3.09958 4.29435C5.28551 2.86254 7.47198 1.43145 9.65821 0C9.77802 0 9.89783 0 10.0176 0C10.0724 0.0209063 10.1259 0.0466044 10.1822 0.0621793C14.1847 1.165 18.1868 2.26944 22.1913 3.36495C22.5459 3.46193 22.8516 3.58995 23 3.95314ZM1.44487 7.69812C1.44145 7.77389 1.43774 7.8181 1.43774 7.86237C1.4375 11.096 1.4387 14.3297 1.43373 17.5634C1.43349 17.7171 1.49597 17.7605 1.62673 17.8014C4.85001 18.8087 8.07179 19.821 11.2941 20.8315C11.7904 20.9871 12.2878 21.1389 12.8028 21.298C12.8028 21.2115 12.8028 21.152 12.8028 21.0926C12.8028 17.8814 12.8012 14.6701 12.8076 11.459C12.8079 11.2874 12.7432 11.2316 12.5962 11.1857C9.5937 10.2483 6.5926 9.30628 3.59096 8.36586C2.88602 8.14499 2.18024 7.92677 1.44487 7.69812ZM21.5625 5.60198C21.5046 5.63325 21.4838 5.64133 21.4665 5.65433C19.099 7.43436 16.7308 9.21361 14.3682 11C14.2965 11.0543 14.2457 11.1835 14.2455 11.2778C14.2392 14.3908 14.2402 17.5038 14.2409 20.6169C14.2409 20.6783 14.2502 20.7398 14.257 20.8234C14.3364 20.7669 14.3914 20.7296 14.4444 20.6896C16.758 18.9498 19.0702 17.208 21.3876 15.4734C21.5258 15.3699 21.5659 15.2653 21.5657 15.1022C21.5614 12.0191 21.5625 8.93596 21.5625 5.85285C21.5625 5.78007 21.5625 5.70741 21.5625 5.60198ZM16.3171 7.72633C16.2093 7.68823 16.1482 7.66325 16.0851 7.64474C12.5963 6.61758 9.10698 5.59191 5.61929 4.56086C5.46043 4.51389 5.34355 4.5339 5.20697 4.6249C4.34227 5.20116 3.47152 5.76839 2.60322 6.33927C2.54337 6.37857 2.48748 6.42391 2.40021 6.48819C2.8097 6.61656 3.18422 6.73397 3.55874 6.85132C6.76518 7.85608 9.97198 8.85988 13.1772 9.86871C13.3273 9.91597 13.4357 9.90795 13.5615 9.80426C13.8151 9.59519 14.085 9.40578 14.348 9.20792C14.9927 8.723 15.6373 8.23784 16.3171 7.72633ZM20.6641 4.45339C20.5646 4.41985 20.4965 4.39319 20.4264 4.37384C17.0049 3.43114 13.5836 2.48778 10.1598 1.55311C10.0561 1.52478 9.90591 1.55455 9.81366 1.61374C8.95117 2.16688 8.09647 2.73225 7.23991 3.29468C7.16767 3.34213 7.09818 3.39358 6.99874 3.46337C7.07949 3.49129 7.12544 3.5092 7.17259 3.52315C10.6484 4.5481 14.1239 5.57376 17.6018 6.59152C17.6889 6.61704 17.8235 6.58523 17.8988 6.52976C18.6698 5.9617 19.4332 5.38327 20.1986 4.80748C20.3461 4.69642 20.4926 4.58392 20.6641 4.45339Z" fill="#939191"/>
</svg>
