<svg width="45" height="44" viewBox="0 0 45 44" fill="none" xmlns="http://www.w3.org/2000/svg">
<path fill-rule="evenodd" clip-rule="evenodd" d="M26.206 34.6643C23.928 36.7224 20.9944 36.3639 19.186 34.5627C19.0777 34.7009 18.9703 34.8321 18.8693 34.9678C16.9417 37.5604 15.0166 40.1548 13.0871 42.7461C11.9223 44.3104 10.1083 44.1798 9.18955 42.4685C8.55917 41.2945 7.92349 40.1231 7.31036 38.9405C7.14766 38.6269 6.962 38.4578 6.57833 38.404C5.21752 38.2133 3.86546 37.9637 2.50703 37.7548C0.644041 37.4685 -0.0972794 35.7759 1.00886 34.2841C3.37987 31.0859 5.75061 27.8876 8.1467 24.7074C8.44 24.3181 8.40669 24.0527 8.10132 23.7491C7.49735 23.1485 6.89126 22.5498 6.28278 21.9535C4.13645 19.8506 4.13499 17.083 6.28132 14.9818C6.80819 14.4659 7.33677 13.9516 7.86456 13.4366C8.43217 12.8826 8.71139 12.2204 8.70462 11.4308C8.69732 10.5898 8.64105 9.73858 8.74948 8.90948C9.07276 6.43695 10.9831 4.83248 13.5855 4.77513C14.2487 4.7605 14.9126 4.76646 15.5761 4.77319C16.3669 4.78122 17.0286 4.50079 17.5823 3.95678C18.1551 3.39412 18.7256 2.82926 19.3083 2.27645C21.3137 0.373563 24.1608 0.377058 26.1681 2.28421C26.7267 2.81476 27.2793 3.35179 27.8212 3.89852C28.4208 4.50338 29.1373 4.77306 30.0022 4.7816C31.0434 4.79183 32.1093 4.74911 33.1193 4.94822C35.2109 5.36044 36.6782 7.17749 36.7543 9.26072C36.7809 9.98806 36.7728 10.7172 36.7619 11.4452C36.7501 12.2354 37.0397 12.8939 37.611 13.4457C38.177 13.9922 38.7426 14.5389 39.2996 15.0942C41.2907 17.0791 41.2806 19.88 39.2773 21.8608C38.6599 22.4714 38.0231 23.0641 37.4219 23.6893C36.9023 24.2295 36.9149 24.3112 37.3531 24.9096C39.6667 28.068 41.9764 31.2293 44.2979 34.3823C44.7483 34.9942 44.9916 35.6352 44.7585 36.3805C44.4964 37.2179 43.9039 37.713 43.0241 37.8561C41.5696 38.0928 40.1095 38.2979 38.6581 38.5502C38.4404 38.588 38.1767 38.7668 38.0702 38.9539C37.3783 40.1688 36.7303 41.4073 36.0564 42.6319C35.1715 44.24 33.3275 44.3522 32.2325 42.8626C30.3192 40.2601 28.414 37.6521 26.5046 35.0469C26.4092 34.9175 26.3066 34.7931 26.206 34.6643ZM10.8232 26.2059C10.8232 26.6267 10.8098 27.048 10.8256 27.4682C10.8837 29.0153 11.9863 30.0644 13.5686 30.0817C14.2653 30.0894 14.9623 30.079 15.6591 30.0849C16.9263 30.0955 18.0262 30.523 18.9394 31.3812C19.5485 31.9537 20.1371 32.5469 20.7394 33.1263C21.9704 34.3105 23.5139 34.3022 24.7485 33.1079C25.3728 32.504 25.9862 31.8892 26.6229 31.2981C27.2755 30.6922 28.0537 30.2697 28.9483 30.1808C29.885 30.0874 30.8335 30.0965 31.7772 30.0863C33.5319 30.0674 34.6258 29.0112 34.6423 27.2922C34.6485 26.6447 34.6493 25.9972 34.6456 25.3499C34.6383 24.0476 35.1597 22.9653 36.0832 22.0513C36.6657 21.475 37.2636 20.9134 37.8399 20.3316C38.9419 19.2199 38.9386 17.7036 37.8361 16.5987C37.3035 16.0653 36.7663 15.5362 36.2167 15.0197C35.1426 14.01 34.6089 12.7909 34.6393 11.33C34.6542 10.6187 34.6728 9.90235 34.6073 9.1956C34.4809 7.83142 33.418 6.89552 32.0179 6.86432C31.3382 6.84917 30.6576 6.85888 29.9773 6.85914C28.5645 6.85991 27.3548 6.38426 26.3585 5.40019C25.8104 4.85902 25.2612 4.31889 24.7049 3.78588C23.5048 2.6361 21.968 2.63131 20.7736 3.77423C20.2049 4.31825 19.645 4.87081 19.0837 5.42181C18.0968 6.39008 16.8984 6.85499 15.5054 6.85862C14.875 6.8603 14.2444 6.85448 13.614 6.86017C11.9333 6.87519 10.8515 7.92166 10.8236 9.56341C10.8129 10.1946 10.8168 10.8258 10.8218 11.4571C10.8325 12.825 10.322 13.9782 9.33155 14.9378C8.80177 15.451 8.27437 15.9665 7.74738 16.4826C6.48052 17.7232 6.48172 19.2136 7.75017 20.4557C8.10145 20.7997 8.43548 21.1633 8.80946 21.482C10.2814 22.7363 11.0504 24.2667 10.8232 26.2059ZM34.0866 41.8313C34.8633 40.3983 35.5902 39.0584 36.3155 37.7176C36.6527 37.0945 37.1547 36.6863 37.8803 36.5685C38.4355 36.4782 38.9909 36.3901 39.5467 36.3027C40.5836 36.1397 41.6207 35.978 42.7286 35.8048C40.7327 33.0838 38.7883 30.433 36.795 27.7156C36.7453 27.9518 36.7148 28.0775 36.6929 28.2045C36.2958 30.5047 34.4366 32.0821 32.0414 32.1377C31.3124 32.1546 30.5828 32.1346 29.8537 32.1466C28.9958 32.1607 28.2871 32.4854 27.7316 33.1572C29.8359 36.0294 31.9331 38.8919 34.0866 41.8313ZM11.2022 41.7437C13.3832 38.8119 15.5194 35.9403 17.6565 33.0675C17.0834 32.4301 16.3842 32.1537 15.5655 32.1452C14.8197 32.1373 14.0733 32.1547 13.328 32.1338C11.1545 32.0723 9.31403 30.6004 8.82818 28.542C8.75651 28.2384 8.72373 27.9261 8.65791 27.5266C6.61562 30.2723 4.62894 32.9433 2.60431 35.6652C4.18078 35.9193 5.66104 36.1749 7.14726 36.391C8.04213 36.521 8.66613 36.952 9.06705 37.7435C9.56565 38.728 10.0989 39.6956 10.6188 40.6696C10.7999 41.0089 10.9859 41.3459 11.2022 41.7437Z" fill="#025CA1"/>
<path fill-rule="evenodd" clip-rule="evenodd" d="M21.2634 21.0449C22.6906 19.3044 24.0789 17.6164 25.4598 15.9225C25.7454 15.5721 26.0775 15.3245 26.5567 15.3885C27.3956 15.5008 27.756 16.4112 27.2137 17.0959C26.4035 18.1191 25.5631 19.1195 24.7348 20.1292C23.9273 21.1136 23.1251 22.1021 22.3093 23.08C21.8476 23.6334 21.253 23.7098 20.6966 23.2731C19.7026 22.493 18.7236 21.6945 17.7432 20.8981C17.4151 20.6314 17.2554 20.2905 17.3523 19.866C17.4429 19.4685 17.6908 19.137 18.091 19.1089C18.4353 19.0846 18.8579 19.1746 19.1351 19.3665C19.8618 19.8695 20.528 20.4557 21.2634 21.0449Z" fill="#025CA1"/>
<path fill-rule="evenodd" clip-rule="evenodd" d="M22.4601 30C16.167 30.0059 11.0143 24.8505 11 18.5343C10.9857 12.1622 16.1226 7.00389 22.4868 7C28.8345 6.99611 34.0027 12.1394 34 18.4583C33.997 24.8573 28.8615 29.9938 22.4601 30ZM22.4875 27.8352C27.6242 27.8716 31.83 23.6946 31.8628 18.5239C31.8952 13.4204 27.717 9.1944 22.5891 9.14357C17.4679 9.09274 13.1864 13.262 13.1386 18.3462C13.0892 23.5972 17.2277 27.7978 22.4875 27.8352Z" fill="#025CA1"/>
</svg>
