<svg width="17" height="18" viewBox="0 0 17 18" fill="none" xmlns="http://www.w3.org/2000/svg">
<path fill-rule="evenodd" clip-rule="evenodd" d="M1.80658 12.3335C0.700508 13.6485 0.123902 15.1671 0.0163496 16.8521C0.0149452 16.874 0.0149076 16.8961 0.01487 16.9181C0.0148174 16.9489 0.0147649 16.9797 0.0109817 17.0101C-0.04704 17.4774 0.121657 17.8208 0.593394 18.0002H15.8939C15.9036 17.9951 15.9131 17.9897 15.9226 17.9843C15.943 17.9727 15.9633 17.9611 15.9849 17.9519C16.3081 17.8151 16.4798 17.578 16.4781 17.2384C16.4727 16.1479 16.2555 15.0975 15.7915 14.1008C14.2744 10.8421 10.9039 8.99294 7.21396 9.42226C5.00548 9.67923 3.20183 10.6745 1.80658 12.3335ZM14.3394 16.0002C14.2569 15.6369 14.137 15.2856 13.9784 14.945C12.8384 12.4963 10.3101 11.0755 7.4451 11.4089C5.75102 11.606 4.40946 12.3459 3.3372 13.6208C2.73607 14.3355 2.34647 15.1235 2.15003 16.0002H14.3394Z" fill="black"/>
<path fill-rule="evenodd" clip-rule="evenodd" d="M8.2108 0H9.06358L9.1619 0.0203987C9.20369 0.0290672 9.26002 0.0394298 9.32582 0.0515349C9.52308 0.0878194 9.80544 0.13976 10.0361 0.20866C12.0419 0.807961 13.4075 2.67892 13.2875 4.75085C13.1668 6.83419 11.5771 8.54935 9.51232 8.92298C6.94916 9.3867 4.42847 7.71029 4.04806 5.13817C3.67372 2.60722 5.53076 0.353778 8.06535 0.0371757C8.07353 0.0349344 8.08268 0.0324977 8.09241 0.030031L8.2108 0ZM8.12889 0.0296612C8.12841 0.0297147 8.12793 0.0297697 8.12745 0.0298234ZM8.34547 1.9742C6.79491 2.14754 5.78047 3.47872 5.98357 4.85191C6.19077 6.25287 7.60936 7.27893 9.16397 6.99768C10.3843 6.77685 11.2683 5.7742 11.3342 4.63767C11.3995 3.51117 10.6519 2.43472 9.47615 2.08338M8.34547 1.9742C8.38644 1.96963 8.42432 1.96314 8.45621 1.95656ZM8.45621 1.95656H8.86469C8.9577 1.97492 9.03515 1.9888 9.10293 2.00103C9.24655 2.02693 9.34913 2.04545 9.47615 2.08338" fill="black"/>
</svg>
