<svg width="38" height="39" viewBox="0 0 38 39" fill="none" xmlns="http://www.w3.org/2000/svg">
<path d="M0.243164 34.9984V13.7359C0.250428 13.7138 0.25839 13.6918 0.266354 13.6699C0.283393 13.6228 0.300442 13.5758 0.31069 13.5273C0.67063 11.8302 1.68676 10.7534 3.33529 10.28C3.48325 10.2376 3.63581 10.2113 3.79623 10.1836C3.8728 10.1704 3.95117 10.1569 4.03168 10.1411C3.97409 9.98161 3.91807 9.82629 3.863 9.67361C3.7718 9.42078 3.68322 9.17519 3.59448 8.92968C3.00945 7.31075 3.65188 5.91984 5.25411 5.33334C8.84317 4.01962 12.432 2.70558 16.0209 1.39152C16.8303 1.09516 17.6397 0.7988 18.4491 0.502441H19.1862C19.2 0.508903 19.2137 0.516278 19.2273 0.523655C19.257 0.539706 19.2868 0.555763 19.3184 0.56242C20.3029 0.772394 20.9513 1.36782 21.2932 2.3132C21.3516 2.47497 21.4107 2.63655 21.4697 2.79815C21.6691 3.34402 21.8686 3.88995 22.046 4.44308C22.1371 4.72721 22.2623 4.81862 22.5622 4.81654C24.7593 4.80176 26.9564 4.80503 29.1536 4.80979C30.7692 4.81326 31.8582 5.91221 31.8638 7.53371C31.8653 7.92715 31.8649 8.32063 31.8645 8.71409C31.8644 8.89012 31.8642 9.06614 31.8642 9.24216V10.1477C34.3298 10.4367 35.7702 12.0692 35.7707 14.5229C35.7707 14.8225 35.771 15.122 35.7713 15.4215C35.7722 16.4219 35.7731 17.4223 35.7666 18.4226C35.7652 18.6396 35.8096 18.7485 36.0454 18.7999C36.5631 18.9125 37.0292 19.172 37.331 19.607C37.5169 19.8749 37.6556 20.176 37.7944 20.4771C37.8556 20.6099 37.9168 20.7428 37.982 20.8727V27.7124C37.9563 27.7803 37.932 27.8488 37.9077 27.9174C37.8546 28.0671 37.8016 28.2167 37.7338 28.3593C37.341 29.1851 36.6723 29.6572 35.7708 29.843V30.2621C35.7705 30.7023 35.7718 31.1425 35.7731 31.5827C35.7761 32.5763 35.7791 33.57 35.7638 34.5633C35.7367 36.3245 34.5653 37.865 32.8992 38.3746C32.7329 38.4256 32.5636 38.4669 32.3943 38.5082C32.3158 38.5274 32.2372 38.5466 32.159 38.5667H3.85485C3.83324 38.5594 3.81178 38.5511 3.79031 38.5429C3.74421 38.5251 3.69806 38.5074 3.65031 38.499C2.38108 38.2741 1.40417 37.6048 0.782877 36.4731C0.611955 36.1619 0.504181 35.8153 0.396403 35.4687C0.347313 35.3108 0.298223 35.153 0.243164 34.9984ZM33.5594 18.7113C33.5594 18.2569 33.5597 17.8077 33.56 17.3622C33.5607 16.3437 33.5613 15.3445 33.5585 14.3453C33.5551 13.1732 32.7822 12.3937 31.6121 12.3934C22.5465 12.3911 13.4808 12.3912 4.41521 12.3932C3.22216 12.3935 2.45549 13.1684 2.45519 14.3681C2.45362 21.0215 2.45372 27.6747 2.45509 34.3281C2.45529 35.5485 3.22609 36.3298 4.4327 36.33C13.486 36.3314 22.5394 36.3315 31.5926 36.3298C32.7774 36.3296 33.5555 35.5445 33.5587 34.353C33.5618 33.1438 33.5604 31.9345 33.5591 30.7252C33.5588 30.5468 33.5586 30.3684 33.5585 30.19C33.5584 30.1188 33.5521 30.0476 33.5456 29.973C33.5425 29.9372 33.5393 29.9006 33.5366 29.8629C33.2099 29.8629 32.8864 29.8633 32.5651 29.8638C31.787 29.8649 31.0221 29.866 30.2574 29.8605C30.2 29.8601 30.1425 29.8598 30.085 29.8595C29.6636 29.8575 29.2402 29.8554 28.8238 29.8043C26.2092 29.4832 24.1824 27.3335 23.9886 24.6996C23.7942 22.0578 25.4713 19.6314 28.0185 18.9289C28.5438 18.7841 29.1061 18.7332 29.6533 18.7208C30.5664 18.6999 31.48 18.7039 32.4098 18.708C32.79 18.7096 33.1728 18.7113 33.5594 18.7113ZM19.8211 4.77837C19.7574 4.60068 19.6953 4.42485 19.6337 4.25057C19.4815 3.81956 19.3326 3.39804 19.1712 2.98139C19.0818 2.7506 18.8884 2.70014 18.6517 2.78916C18.2211 2.95132 17.7889 3.10894 17.3566 3.26656C17.1663 3.33597 16.9759 3.40539 16.7857 3.4752C13.2028 4.78947 9.61989 6.10375 6.0372 7.41881C5.55636 7.59528 5.50859 7.70116 5.68551 8.19397C5.74842 8.36915 5.81361 8.54356 5.87879 8.71795C6.01264 9.07603 6.14646 9.43405 6.26041 9.79852C6.34868 10.0807 6.47626 10.1713 6.77703 10.17C9.27998 10.1596 11.783 10.1604 14.286 10.1613C14.9762 10.1615 15.6664 10.1618 16.3566 10.1618H16.7366C16.7389 10.1104 16.7414 10.0628 16.7438 10.0177C16.7487 9.92641 16.753 9.84554 16.7531 9.76462C16.7537 9.48744 16.7529 9.21025 16.7522 8.93306C16.7508 8.41742 16.7495 7.90179 16.7564 7.38629C16.7729 6.14707 17.6047 5.12248 18.8088 4.87126C19.0171 4.82767 19.2318 4.81546 19.4662 4.80213C19.5794 4.79569 19.6972 4.78899 19.8211 4.77837ZM32.3017 20.9415C32.2252 20.9415 32.1486 20.9414 32.0721 20.9412C31.903 20.9408 31.7339 20.9404 31.5648 20.9419C31.3071 20.9443 31.0484 20.9395 30.7898 20.9347C30.2108 20.9239 29.6318 20.9131 29.0625 20.9832C27.3013 21.2004 26.0755 22.7671 26.1963 24.5317C26.3146 26.2603 27.749 27.6139 29.5137 27.6285C30.9332 27.6403 32.353 27.6373 33.7727 27.6342C34.2565 27.6332 34.7404 27.6321 35.2242 27.6317C35.6573 27.6312 35.7696 27.518 35.7701 27.0836C35.7719 25.2133 35.7721 23.343 35.7699 21.4724C35.7695 21.0506 35.6642 20.9438 35.2491 20.9426C34.5585 20.9405 33.868 20.9409 33.1775 20.9412C32.8856 20.9414 32.5936 20.9416 32.3017 20.9415ZM18.9663 10.135H29.653C29.653 9.88211 29.6531 9.63153 29.6531 9.38258C29.6534 8.79056 29.6536 8.20774 29.6526 7.62492C29.6517 7.12903 29.5648 7.04 29.0757 7.03971C27.7663 7.03884 26.4569 7.03897 25.1474 7.03911C24.6652 7.03916 24.1831 7.03921 23.7009 7.03921C23.3256 7.03921 22.9503 7.03939 22.575 7.03956C21.5391 7.04005 20.5033 7.04053 19.4674 7.03733C19.1838 7.03644 18.9716 7.11773 18.9689 7.44022C18.9636 8.07645 18.9646 8.71268 18.9656 9.35833C18.9659 9.61553 18.9663 9.87422 18.9663 10.135Z" fill="#025CA1"/>
<path d="M0.243164 34.9984V13.7359C0.250428 13.7138 0.25839 13.6918 0.266354 13.6699C0.283393 13.6228 0.300442 13.5758 0.31069 13.5273C0.67063 11.8302 1.68676 10.7534 3.33529 10.28C3.48325 10.2376 3.63581 10.2113 3.79623 10.1836C3.8728 10.1704 3.95117 10.1569 4.03168 10.1411C3.97409 9.98161 3.91807 9.82629 3.863 9.67361C3.7718 9.42078 3.68322 9.17519 3.59448 8.92968C3.00945 7.31075 3.65188 5.91984 5.25411 5.33334C8.84317 4.01962 12.432 2.70558 16.0209 1.39152C16.8303 1.09516 17.6397 0.7988 18.4491 0.502441H19.1862C19.2 0.508903 19.2137 0.516278 19.2273 0.523655C19.257 0.539706 19.2868 0.555763 19.3184 0.56242C20.3029 0.772394 20.9513 1.36782 21.2932 2.3132C21.3516 2.47497 21.4107 2.63655 21.4697 2.79815C21.6691 3.34402 21.8686 3.88995 22.046 4.44308C22.1371 4.72721 22.2623 4.81862 22.5622 4.81654C24.7593 4.80176 26.9564 4.80503 29.1536 4.80979C30.7692 4.81326 31.8582 5.91221 31.8638 7.53371C31.8653 7.92715 31.8649 8.32063 31.8645 8.71409C31.8644 8.89012 31.8642 9.06614 31.8642 9.24216V10.1477C34.3298 10.4367 35.7702 12.0692 35.7707 14.5229C35.7707 14.8225 35.771 15.122 35.7713 15.4215C35.7722 16.4219 35.7731 17.4223 35.7666 18.4226C35.7652 18.6396 35.8096 18.7485 36.0454 18.7999C36.5631 18.9125 37.0292 19.172 37.331 19.607C37.5169 19.8749 37.6556 20.176 37.7944 20.4771C37.8556 20.6099 37.9168 20.7428 37.982 20.8727V27.7124C37.9563 27.7803 37.932 27.8488 37.9077 27.9174C37.8546 28.0671 37.8016 28.2167 37.7338 28.3593C37.341 29.1851 36.6723 29.6572 35.7708 29.843V30.2621C35.7705 30.7023 35.7718 31.1425 35.7731 31.5827C35.7761 32.5763 35.7791 33.57 35.7638 34.5633C35.7367 36.3245 34.5653 37.865 32.8992 38.3746C32.7329 38.4256 32.5636 38.4669 32.3943 38.5082C32.3158 38.5274 32.2372 38.5466 32.159 38.5667H3.85485C3.83324 38.5594 3.81178 38.5511 3.79031 38.5429C3.74421 38.5251 3.69806 38.5074 3.65031 38.499C2.38108 38.2741 1.40417 37.6048 0.782877 36.4731C0.611955 36.1619 0.504181 35.8153 0.396403 35.4687C0.347313 35.3108 0.298223 35.153 0.243164 34.9984ZM33.5594 18.7113C33.5594 18.2569 33.5597 17.8077 33.56 17.3622C33.5607 16.3437 33.5613 15.3445 33.5585 14.3453C33.5551 13.1732 32.7822 12.3937 31.6121 12.3934C22.5465 12.3911 13.4808 12.3912 4.41521 12.3932C3.22216 12.3935 2.45549 13.1684 2.45519 14.3681C2.45362 21.0215 2.45372 27.6747 2.45509 34.3281C2.45529 35.5485 3.22609 36.3298 4.4327 36.33C13.486 36.3314 22.5394 36.3315 31.5926 36.3298C32.7774 36.3296 33.5555 35.5445 33.5587 34.353C33.5618 33.1438 33.5604 31.9345 33.5591 30.7252C33.5588 30.5468 33.5586 30.3684 33.5585 30.19C33.5584 30.1188 33.5521 30.0476 33.5456 29.973C33.5425 29.9372 33.5393 29.9006 33.5366 29.8629C33.2099 29.8629 32.8864 29.8633 32.5651 29.8638C31.787 29.8649 31.0221 29.866 30.2574 29.8605C30.2 29.8601 30.1425 29.8598 30.085 29.8595C29.6636 29.8575 29.2402 29.8554 28.8238 29.8043C26.2092 29.4832 24.1824 27.3335 23.9886 24.6996C23.7942 22.0578 25.4713 19.6314 28.0185 18.9289C28.5438 18.7841 29.1061 18.7332 29.6533 18.7208C30.5664 18.6999 31.48 18.7039 32.4098 18.708C32.79 18.7096 33.1728 18.7113 33.5594 18.7113ZM19.8211 4.77837C19.7574 4.60068 19.6953 4.42485 19.6337 4.25057C19.4815 3.81956 19.3326 3.39804 19.1712 2.98139C19.0818 2.7506 18.8884 2.70014 18.6517 2.78916C18.2211 2.95132 17.7889 3.10894 17.3566 3.26656C17.1663 3.33597 16.9759 3.40539 16.7857 3.4752C13.2028 4.78947 9.61989 6.10375 6.0372 7.41881C5.55636 7.59528 5.50859 7.70116 5.68551 8.19397C5.74842 8.36915 5.81361 8.54356 5.87879 8.71795C6.01264 9.07603 6.14646 9.43405 6.26041 9.79852C6.34868 10.0807 6.47626 10.1713 6.77703 10.17C9.27998 10.1596 11.783 10.1604 14.286 10.1613C14.9762 10.1615 15.6664 10.1618 16.3566 10.1618H16.7366C16.7389 10.1104 16.7414 10.0628 16.7438 10.0177C16.7487 9.92641 16.753 9.84554 16.7531 9.76462C16.7537 9.48744 16.7529 9.21025 16.7522 8.93306C16.7508 8.41742 16.7495 7.90179 16.7564 7.38629C16.7729 6.14707 17.6047 5.12248 18.8088 4.87126C19.0171 4.82767 19.2318 4.81546 19.4662 4.80213C19.5794 4.79569 19.6972 4.78899 19.8211 4.77837ZM32.3017 20.9415C32.2252 20.9415 32.1486 20.9414 32.0721 20.9412C31.903 20.9408 31.7339 20.9404 31.5648 20.9419C31.3071 20.9443 31.0484 20.9395 30.7898 20.9347C30.2108 20.9239 29.6318 20.9131 29.0625 20.9832C27.3013 21.2004 26.0755 22.7671 26.1963 24.5317C26.3146 26.2603 27.749 27.6139 29.5137 27.6285C30.9332 27.6403 32.353 27.6373 33.7727 27.6342C34.2565 27.6332 34.7404 27.6321 35.2242 27.6317C35.6573 27.6312 35.7696 27.518 35.7701 27.0836C35.7719 25.2133 35.7721 23.343 35.7699 21.4724C35.7695 21.0506 35.6642 20.9438 35.2491 20.9426C34.5585 20.9405 33.868 20.9409 33.1775 20.9412C32.8856 20.9414 32.5936 20.9416 32.3017 20.9415ZM18.9663 10.135H29.653C29.653 9.88211 29.6531 9.63153 29.6531 9.38258C29.6534 8.79056 29.6536 8.20774 29.6526 7.62492C29.6517 7.12903 29.5648 7.04 29.0757 7.03971C27.7663 7.03884 26.4569 7.03897 25.1474 7.03911C24.6652 7.03916 24.1831 7.03921 23.7009 7.03921C23.3256 7.03921 22.9503 7.03939 22.575 7.03956C21.5391 7.04005 20.5033 7.04053 19.4674 7.03733C19.1838 7.03644 18.9716 7.11773 18.9689 7.44022C18.9636 8.07645 18.9646 8.71268 18.9656 9.35833C18.9659 9.61553 18.9663 9.87422 18.9663 10.135Z" stroke="#83AFD1"/>
<path d="M29.5224 25.4008C28.9326 25.4121 28.4158 24.9096 28.4012 24.3104C28.3865 23.7054 28.8704 23.191 29.4699 23.1745C30.0906 23.1574 30.6056 23.6548 30.6099 24.2759C30.6139 24.8757 30.1175 25.3894 29.5224 25.4008Z" fill="#025CA1"/>
<path d="M29.5224 25.4008C28.9326 25.4121 28.4158 24.9096 28.4012 24.3104C28.3865 23.7054 28.8704 23.191 29.4699 23.1745C30.0906 23.1574 30.6056 23.6548 30.6099 24.2759C30.6139 24.8757 30.1175 25.3894 29.5224 25.4008Z" stroke="#4EA1E1"/>
</svg>
