<svg width="46" height="46" viewBox="0 0 46 46" fill="none" xmlns="http://www.w3.org/2000/svg">
<path d="M27.4768 8.0243L16.7613 3.11344C16.0185 2.77311 15.14 3.09942 14.7997 3.84207L11.7966 10.3949L10.7276 12.7273L4.37243 26.5943C4.03192 27.3369 4.35841 28.2154 5.10106 28.5559L15.8165 33.4668C16.5594 33.8073 17.4377 33.481 17.7782 32.7382L28.2055 9.98595C28.5458 9.24312 28.2195 8.36463 27.4768 8.0243Z" fill="#87796F"/>
<path d="M27.5891 7.7792L16.8734 2.86834C15.9967 2.46638 14.9565 2.85307 14.5547 3.72977L11.5514 10.2826C11.4894 10.4179 11.5489 10.578 11.6842 10.6398C11.8197 10.7016 11.9796 10.6425 12.0416 10.5072L15.0447 3.95438C15.3227 3.34775 16.0423 3.08074 16.649 3.35835L27.3644 8.26921C27.9711 8.54737 28.2383 9.26702 27.9603 9.87364L17.533 32.6259C17.3984 32.9196 17.1575 33.1435 16.8543 33.256C16.5514 33.3689 16.2226 33.3563 15.9288 33.2219L5.21311 28.311C4.9195 28.1764 4.69561 27.9353 4.58313 27.6323C4.47064 27.3292 4.48268 27.0006 4.61727 26.7069L10.9725 12.8399C11.0344 12.7046 10.975 12.5445 10.8397 12.4827C10.7042 12.4205 10.5444 12.48 10.4823 12.6153L4.12744 26.482C3.93284 26.9066 3.91523 27.3817 4.07802 27.8197C4.24082 28.2578 4.56426 28.6062 4.98886 28.8007L15.7043 33.7115C15.9367 33.8181 16.1839 33.8716 16.4321 33.8716C16.6376 33.8716 16.8437 33.835 17.0421 33.7613C17.4802 33.5987 17.8286 33.2751 18.0232 32.8505L28.4505 10.0983C28.8523 9.2212 28.4658 8.18098 27.5891 7.7792Z" fill="#3A312A"/>
<path d="M36.3062 14.4675L33.3052 10.5453L32.0846 8.95002L29.1437 5.10614C28.6472 4.45729 27.7182 4.33367 27.0694 4.83014L7.19232 20.0384C6.54347 20.5348 6.41985 21.4638 6.91632 22.1127L14.0788 31.474C14.5753 32.1229 15.5043 32.2465 16.1532 31.75L36.0302 16.5418C36.679 16.0453 36.8027 15.1164 36.3062 14.4675Z" fill="#FCE8CB"/>
<path d="M36.5202 14.3038L32.2988 8.78616L29.3578 4.94228C29.0739 4.57123 28.6624 4.33278 28.1992 4.27133C27.7367 4.20934 27.2767 4.33207 26.9056 4.61597L7.02859 19.8242C6.65771 20.1081 6.41927 20.5194 6.35763 20.9826C6.296 21.4459 6.41837 21.9053 6.70209 22.2762L13.8646 31.6376C14.1485 32.0086 14.56 32.2471 15.0231 32.3085C15.1014 32.3191 15.1797 32.3241 15.2576 32.3241C15.6394 32.3241 16.0086 32.1998 16.3168 31.9639L36.1938 16.7557C36.5649 16.4718 36.8032 16.0605 36.8648 15.5972C36.9264 15.1342 36.8041 14.6747 36.5202 14.3038ZM36.3304 15.5262C36.2878 15.8466 36.123 16.1312 35.8663 16.3276L15.9892 31.5359C15.7326 31.7324 15.4146 31.8165 15.0944 31.7743C14.7738 31.7317 14.4892 31.5668 14.293 31.3102L7.13029 21.9488C6.72491 21.4187 6.82608 20.6576 7.35616 20.2524L27.2332 5.04417C27.4465 4.88101 27.7018 4.79494 27.966 4.79494C28.0197 4.79494 28.0739 4.79854 28.1282 4.80572C28.4486 4.84831 28.7334 5.01326 28.9296 5.26986L36.0921 14.6312C36.2885 14.8878 36.3732 15.2057 36.3304 15.5262Z" fill="#3A312A"/>
<path d="M8.56169 4.71729C8.38667 6.79519 6.22144 7.1233 6.22144 7.1233C8.08066 7.21081 8.5439 9.64953 8.5439 9.64953C8.58361 7.91051 10.9375 7.09761 10.9375 7.09761C9.17424 6.99195 8.56169 4.71729 8.56169 4.71729Z" fill="#D4DB56"/>
<path d="M10.9535 6.82851C9.40748 6.73597 8.82745 4.66795 8.8217 4.64692C8.78738 4.5206 8.66735 4.43759 8.53726 4.44891C8.40698 4.46077 8.30402 4.56427 8.29306 4.69454C8.13853 6.53023 6.26026 6.84432 6.18101 6.85654C6.04391 6.87738 5.94508 6.99867 5.95227 7.13703C5.95946 7.27557 6.07033 7.3859 6.20869 7.39237C7.83091 7.46891 8.27491 9.67781 8.27923 9.70027C8.30384 9.82803 8.41561 9.91895 8.54373 9.91895C8.55127 9.91895 8.55882 9.91859 8.56637 9.91805C8.70365 9.90655 8.8102 9.79353 8.81344 9.65571C8.84848 8.12657 11.0042 7.35966 11.0259 7.35212C11.1472 7.31007 11.2221 7.18788 11.2045 7.06066C11.1867 6.93326 11.0818 6.83605 10.9535 6.82851ZM8.51605 8.68773C8.27222 8.12513 7.84959 7.44645 7.15276 7.09265C7.67943 6.84019 8.30438 6.38953 8.62656 5.60609C8.90526 6.15791 9.38125 6.84234 10.1241 7.17351C9.58358 7.46802 8.8801 7.96485 8.51605 8.68773Z" fill="#3A312A"/>
<path d="M4.66285 7.76843C4.53904 9.2381 3.00757 9.47025 3.00757 9.47025C4.32252 9.53206 4.65027 11.2571 4.65027 11.2571C4.6783 10.0271 6.34329 9.4521 6.34329 9.4521C5.0959 9.37753 4.66285 7.76843 4.66285 7.76843Z" fill="#D4DB56"/>
<path d="M6.35935 9.18294C5.32327 9.12094 4.92688 7.71201 4.92311 7.69782C4.88897 7.57168 4.77002 7.48776 4.63884 7.4998C4.50839 7.51148 4.40543 7.61534 4.39447 7.74562C4.29043 8.98025 3.02058 9.19498 2.96739 9.20342C2.83029 9.22427 2.73146 9.34555 2.73865 9.48391C2.74584 9.62245 2.8567 9.73278 2.99506 9.73925C4.07948 9.79028 4.38297 11.2926 4.38566 11.3074C4.40992 11.4355 4.52205 11.5266 4.65016 11.5266C4.65771 11.5266 4.66508 11.5262 4.67263 11.5257C4.81009 11.5144 4.91664 11.4012 4.91988 11.2632C4.94324 10.2373 6.41685 9.71176 6.43141 9.70673C6.55306 9.66468 6.62799 9.54267 6.61038 9.41527C6.59277 9.28787 6.48765 9.19048 6.35935 9.18294ZM4.63723 10.4039C4.4712 10.065 4.21676 9.69469 3.83816 9.45534C4.17148 9.26829 4.50246 8.98276 4.71342 8.57182C4.90334 8.90855 5.19031 9.2823 5.60125 9.51051C5.26865 9.70816 4.88448 10.0029 4.63723 10.4039Z" fill="#3A312A"/>
<path d="M4.65596 2.97852C4.5379 4.44872 3.00732 4.6868 3.00732 4.6868C4.32246 4.74359 4.65704 6.46715 4.65704 6.46715C4.68021 5.23719 6.34304 4.65554 6.34304 4.65554C5.09529 4.58582 4.65596 2.97852 4.65596 2.97852Z" fill="#D4DB56"/>
<path d="M6.35802 4.38633C5.32644 4.32865 4.9234 2.93392 4.91603 2.90733C4.88135 2.78136 4.76204 2.69511 4.63087 2.71021C4.50059 2.72225 4.39781 2.82629 4.38739 2.95692C4.2882 4.19191 3.01907 4.41185 2.96588 4.42047C2.82896 4.44186 2.73049 4.56351 2.73822 4.70169C2.74594 4.84022 2.85735 4.95019 2.99571 4.95612C4.0803 5.00284 4.38955 6.50377 4.39242 6.51851C4.41722 6.64608 4.52898 6.73665 4.65674 6.73665C4.66447 6.73665 4.67237 6.73629 4.68028 6.73557C4.81774 6.72371 4.92394 6.61015 4.92645 6.47215C4.94586 5.44631 6.41732 4.91497 6.43187 4.90994C6.55316 4.86754 6.62773 4.74517 6.60977 4.61777C6.5918 4.49055 6.48632 4.39352 6.35802 4.38633ZM4.64057 5.61414C4.4731 5.27579 4.21741 4.90653 3.83773 4.66844C4.17033 4.47995 4.50023 4.19317 4.70939 3.78151C4.90058 4.11752 5.18898 4.49019 5.601 4.7166C5.26948 4.91587 4.8862 5.21218 4.64057 5.61414Z" fill="#3A312A"/>
<path d="M37.2631 16.6211H4.91122C3.81153 16.6211 2.91992 17.5125 2.91992 18.6124V41.0302C2.91992 42.1299 3.81153 43.0215 4.91122 43.0215H37.2631C38.3629 43.0215 39.2544 42.1299 39.2544 41.0302V18.6124C39.2544 17.5125 38.3627 16.6211 37.2631 16.6211Z" fill="#F1B670"/>
<path d="M37.2631 16.3516H4.91122C3.66455 16.3516 2.65039 17.3659 2.65039 18.6124V27.1091C2.65039 27.2579 2.77096 27.3786 2.91992 27.3786C3.06888 27.3786 3.18945 27.2579 3.18945 27.1091V18.6124C3.18945 17.6631 3.96175 16.8906 4.91122 16.8906H37.2631C38.2125 16.8906 38.9848 17.6631 38.9848 18.6124V41.0302C38.9848 41.9795 38.2125 42.752 37.2631 42.752H4.91122C3.96175 42.752 3.18945 41.9795 3.18945 41.0302V29.6722C3.18945 29.5234 3.06888 29.4026 2.91992 29.4026C2.77096 29.4026 2.65039 29.5234 2.65039 29.6722V41.0302C2.65039 42.2769 3.66455 43.291 4.91122 43.291H37.2631C38.5097 43.291 39.5239 42.2767 39.5239 41.0302V18.6124C39.5239 17.3659 38.5097 16.3516 37.2631 16.3516Z" fill="#3A312A"/>
<path d="M41.4386 24.8799H34.1855C31.4565 24.8799 29.2441 27.0922 29.2441 29.8213C29.2441 32.5504 31.4565 34.7627 34.1855 34.7627H41.4386C42.3452 34.7627 43.0801 34.0278 43.0801 33.1211V26.5213C43.0801 25.6148 42.3452 24.8799 41.4386 24.8799Z" fill="#D4DB56"/>
<path d="M41.4386 24.6104H34.1855C31.3122 24.6104 28.9746 26.9481 28.9746 29.8213C28.9746 32.6945 31.3122 35.0322 34.1855 35.0322H41.4386C42.4923 35.0322 43.3496 34.1749 43.3496 33.1211V26.5213C43.3496 25.4675 42.4923 24.6104 41.4386 24.6104ZM42.8105 33.1211C42.8105 33.8776 42.1951 34.4932 41.4386 34.4932H34.1855C31.6095 34.4932 29.5137 32.3975 29.5137 29.8213C29.5137 27.2451 31.6095 25.1494 34.1855 25.1494H41.4386C42.1951 25.1494 42.8105 25.7648 42.8105 26.5213V33.1211Z" fill="#3A312A"/>
<path d="M34.0957 31.6182C35.0881 31.6182 35.8926 30.8137 35.8926 29.8213C35.8926 28.8289 35.0881 28.0244 34.0957 28.0244C33.1033 28.0244 32.2988 28.8289 32.2988 29.8213C32.2988 30.8137 33.1033 31.6182 34.0957 31.6182Z" fill="#FAE6CA"/>
<path d="M34.0957 27.7549C32.9563 27.7549 32.0293 28.6819 32.0293 29.8213C32.0293 30.9607 32.9563 31.8877 34.0957 31.8877C35.2351 31.8877 36.1621 30.9607 36.1621 29.8213C36.1621 28.6819 35.2351 27.7549 34.0957 27.7549ZM34.0957 31.3486C33.2535 31.3486 32.5684 30.6635 32.5684 29.8213C32.5684 28.9791 33.2535 28.2939 34.0957 28.2939C34.9379 28.2939 35.623 28.9791 35.623 29.8213C35.623 30.6635 34.9379 31.3486 34.0957 31.3486Z" fill="#3A312A"/>
<path d="M32.219 19.5293C32.9449 15.9935 30.667 12.5388 27.1312 11.8129C23.5954 11.0871 20.1407 13.365 19.4149 16.9008C18.689 20.4365 20.9669 23.8913 24.5027 24.6171C28.0385 25.343 31.4932 23.0651 32.219 19.5293Z" fill="#D6DF58"/>
<path d="M25.8157 11.4102C22.0635 11.4102 19.0107 14.4629 19.0107 18.2151C19.0107 21.9673 22.0635 25.0199 25.8157 25.0199C29.5679 25.0199 32.6206 21.9673 32.6206 18.2151C32.6206 14.4629 29.5679 11.4102 25.8157 11.4102ZM25.8157 24.4808C22.3608 24.4808 19.5498 21.67 19.5498 18.2151C19.5498 14.7603 22.3607 11.9492 25.8157 11.9492C29.2707 11.9492 32.0816 14.7603 32.0816 18.2151C32.0816 21.67 29.2705 24.4808 25.8157 24.4808Z" fill="#3A312A"/>
<path d="M26.5927 17.476C25.6409 17.1178 25.2489 16.8827 25.2489 16.5131C25.2489 16.1997 25.4841 15.8862 26.212 15.8862C27.0181 15.8862 27.5332 16.1437 27.8245 16.2669L28.1492 15.0018C27.7796 14.8224 27.2757 14.6656 26.5255 14.6321V13.6467H25.4282V14.7105C24.23 14.9457 23.5357 15.7182 23.5357 16.7038C23.5357 17.79 24.3531 18.35 25.5513 18.7529C26.38 19.0329 26.7383 19.3019 26.7383 19.727C26.7383 20.1751 26.3015 20.4213 25.6634 20.4213C24.9355 20.4213 24.2749 20.1861 23.8045 19.9286L23.4685 21.2387C23.894 21.4851 24.6219 21.6865 25.3721 21.7203V22.784H26.4695V21.6417C27.7573 21.418 28.4627 20.567 28.4627 19.5703C28.4627 18.5623 27.9251 17.9463 26.5927 17.476Z" fill="#87796F"/>
<path d="M26.6876 17.2237C25.8462 16.9071 25.5184 16.708 25.5184 16.513C25.5184 16.2022 25.9529 16.1556 26.2118 16.1556C26.8917 16.1556 27.3394 16.3502 27.6355 16.4791L27.719 16.515C27.7914 16.5459 27.8734 16.5434 27.9436 16.5085C28.0141 16.4737 28.0656 16.4099 28.0852 16.3339L28.4101 15.0685C28.4419 14.9444 28.3819 14.8148 28.2665 14.7589C27.8418 14.553 27.3582 14.4281 26.7949 14.3794V13.6465C26.7949 13.4977 26.6743 13.377 26.5254 13.377H25.428C25.2791 13.377 25.1585 13.4977 25.1585 13.6465V14.4953C23.9851 14.8006 23.2662 15.6311 23.2662 16.7035C23.2662 18.0905 24.4415 18.6637 25.4649 19.008C26.3471 19.3061 26.4686 19.5296 26.4686 19.7267C26.4686 20.131 25.7976 20.1515 25.6632 20.1515C24.8888 20.1515 24.2473 19.8635 23.9337 19.6921C23.8606 19.6518 23.7731 19.648 23.6971 19.6811C23.6207 19.7144 23.5639 19.7808 23.5433 19.8615L23.2074 21.1716C23.1774 21.2884 23.229 21.4113 23.3336 21.4719C23.7708 21.7247 24.4309 21.9092 25.1024 21.9714V22.7836C25.1024 22.9324 25.223 23.0531 25.372 23.0531H26.4693C26.6183 23.0531 26.7388 22.9324 26.7388 22.7836V21.8609C27.9575 21.5685 28.7321 20.6888 28.7321 19.5699C28.7323 18.431 28.1192 17.729 26.6876 17.2237ZM26.4233 21.3759C26.2941 21.3984 26.2 21.5103 26.2 21.6415V22.5141H25.6417V21.7198C25.6417 21.5756 25.5283 21.457 25.3842 21.4507C24.807 21.4248 24.2045 21.2897 23.7832 21.0972L23.9831 20.3172C24.3839 20.4962 24.9768 20.6904 25.6636 20.6904C26.4803 20.6904 27.008 20.3122 27.008 19.7266C27.008 19.0531 26.3495 18.7376 25.6375 18.497C24.3533 18.065 23.8056 17.5285 23.8056 16.7033C23.8056 15.8266 24.4316 15.1803 25.4803 14.9746C25.6068 14.9498 25.6979 14.8389 25.6979 14.7101V13.9158H26.2562V14.6317C26.2562 14.776 26.3698 14.8946 26.5139 14.9009C27.0218 14.9235 27.4553 15.0073 27.8315 15.1559L27.6416 15.8958C27.3181 15.7657 26.8502 15.6162 26.2122 15.6162C25.3033 15.6162 24.9797 16.0793 24.9797 16.5127C24.9797 17.1092 25.6379 17.4043 26.5034 17.7297C27.9061 18.2249 28.1936 18.8233 28.1936 19.5695C28.1932 20.4942 27.5151 21.1862 26.4233 21.3759Z" fill="#3A312A"/>
<path d="M37.2637 16.8906H34.5684C35.5171 16.8906 36.2898 17.6633 36.2898 18.612V24.61H38.9851V18.612C38.9851 17.6633 38.2124 16.8906 37.2637 16.8906Z" fill="#F1BA2B"/>
<path d="M36.2898 35.0319V41.0298C36.2898 41.9786 35.5171 42.7512 34.5684 42.7512H37.2637C38.2124 42.7512 38.9851 41.9786 38.9851 41.0298V35.0319H36.2898Z" fill="#F1BA2B"/>
</svg>
