<svg width="22" height="24" viewBox="0 0 22 24" fill="none" xmlns="http://www.w3.org/2000/svg">
<path fill-rule="evenodd" clip-rule="evenodd" d="M0 21.2602C0 16.8921 0 12.5241 0 8.15591C0.0127354 8.11314 0.0292596 8.07122 0.0377682 8.02735C0.238736 6.98139 0.80623 6.31778 1.72692 6.02603C1.84905 5.98735 1.97668 5.97043 2.1159 5.94043C2.03042 5.67929 1.95121 5.43648 1.87173 5.19379C1.545 4.19603 1.90379 3.3388 2.79867 2.97733C5.25513 1.98507 7.71148 0.992505 10.1679 0C10.3051 0 10.4424 0 10.5795 0C10.6041 0.0126477 10.6276 0.0309783 10.6534 0.036966C11.2032 0.166375 11.5653 0.533341 11.7562 1.11599C11.8992 1.55249 12.0483 1.98684 12.1767 2.42866C12.2276 2.60377 12.2975 2.6601 12.465 2.65882C13.692 2.64972 14.9191 2.65173 16.1461 2.65466C17.0485 2.6568 17.6567 3.33409 17.6598 4.33344C17.6609 4.6844 17.66 5.03542 17.66 5.38638C17.66 5.57389 17.66 5.76141 17.66 5.94446C19.0371 6.12257 19.8415 7.1287 19.8417 8.64098C19.8419 9.44212 19.8442 10.2433 19.8395 11.0444C19.8387 11.1781 19.8635 11.2452 19.9952 11.2769C20.2843 11.3464 20.5446 11.5063 20.7132 11.7744C20.8628 12.0123 20.9577 12.2927 21.0767 12.5544C21.0767 13.9595 21.0767 15.3646 21.0767 16.7698C21.0311 16.903 20.9933 17.0404 20.9381 17.1684C20.7188 17.6774 20.3453 17.9684 19.8418 18.0829C19.8418 18.1762 19.8418 18.2587 19.8418 18.3412C19.8413 19.2248 19.8502 20.1086 19.8379 20.9921C19.8228 22.0775 19.1686 23.0269 18.2381 23.341C18.102 23.387 17.9625 23.4202 17.8247 23.4594C12.5555 23.4594 7.28633 23.4594 2.01714 23.4594C1.97916 23.4452 1.94199 23.4252 1.90296 23.4177C1.19411 23.279 0.648465 22.8665 0.301479 22.1691C0.162487 21.89 0.0982057 21.5646 0 21.2602ZM18.6068 11.2223C18.6068 10.302 18.6085 9.4167 18.6063 8.53149C18.6044 7.80911 18.1727 7.32868 17.5192 7.32849C12.4561 7.32709 7.39315 7.32715 2.33009 7.32837C1.66373 7.32855 1.23556 7.80617 1.23539 8.54554C1.23452 12.6461 1.23457 16.7465 1.23534 20.8471C1.23545 21.5992 1.66593 22.0807 2.33981 22.0809C7.396 22.0818 12.4522 22.0818 17.5084 22.0807C18.17 22.0806 18.6046 21.5968 18.6063 20.8625C18.6084 20.0073 18.6072 19.152 18.6063 18.2968C18.6062 18.2318 18.5985 18.1667 18.594 18.0951C17.9697 18.0951 17.3661 18.0984 16.7626 18.0937C16.4955 18.0916 16.2263 18.0948 15.962 18.059C14.5018 17.8611 13.3698 16.5362 13.2616 14.9129C13.153 13.2848 14.0896 11.7894 15.5122 11.3564C15.8056 11.2671 16.1196 11.2358 16.4252 11.2281C17.1437 11.21 17.8628 11.2223 18.6068 11.2223ZM10.934 2.6353C10.8105 2.25495 10.6976 1.88841 10.5711 1.5278C10.5212 1.38556 10.4131 1.35446 10.281 1.40933C9.93459 1.55328 9.58634 1.69143 9.23886 1.83214C7.23785 2.64214 5.23685 3.45214 3.23596 4.26263C2.96742 4.37139 2.94074 4.43664 3.03955 4.74037C3.14681 5.07 3.26593 5.39524 3.36062 5.72927C3.40992 5.90316 3.48122 5.959 3.6492 5.95821C5.43255 5.95002 7.21595 5.95314 8.9993 5.95314C9.0661 5.95314 9.1328 5.95314 9.21152 5.95314C9.21531 5.85727 9.22063 5.78285 9.22079 5.70837C9.22167 5.21976 9.21662 4.73108 9.22255 4.24259C9.23183 3.47884 9.69634 2.84737 10.3688 2.69255C10.5413 2.65271 10.7217 2.65546 10.934 2.6353ZM17.9043 12.5968C17.7672 12.5968 17.63 12.5957 17.4929 12.5971C17.0267 12.6018 16.5553 12.56 16.0953 12.6225C15.1116 12.7564 14.4271 13.7219 14.4946 14.8095C14.5606 15.8748 15.3618 16.7091 16.3473 16.7181C17.4103 16.7278 18.4734 16.7211 19.5365 16.72C19.7784 16.7197 19.8411 16.6499 19.8414 16.3823C19.8424 15.2296 19.8425 14.0768 19.8413 12.924C19.841 12.664 19.7823 12.5982 19.5505 12.5975C19.0017 12.5957 18.4531 12.5969 17.9043 12.5968ZM10.4567 5.93664C12.4602 5.93664 14.4364 5.93664 16.4251 5.93664C16.4251 5.41014 16.4257 4.8999 16.4249 4.38965C16.4243 4.08403 16.3759 4.02917 16.1027 4.02898C15.102 4.02825 14.1015 4.02868 13.101 4.02868C12.3129 4.02868 11.5247 4.0302 10.7366 4.02751C10.5782 4.02696 10.4596 4.07707 10.4582 4.27583C10.454 4.82414 10.4567 5.3725 10.4567 5.93664Z" fill="#1B85D7"/>
</svg>
